<svg xmlns="http://www.w3.org/2000/svg" width="900" height="620" viewBox="0 0 900 620">
  <rect width="100%" height="100%" fill="#020617"/>
  <text x="40" y="44" fill="#f8fafc" font-size="30" font-family="Segoe UI, Arial, sans-serif" font-weight="700">Beauty &amp; Skin Care icon options</text>
  <text x="40" y="76" fill="#94a3b8" font-size="18" font-family="Segoe UI, Arial, sans-serif">Pick the one that feels most natural for your category</text>
  
    <g transform="translate(40, 40)">
      <rect x="0" y="0" rx="24" ry="24" width="360" height="130" fill="#0f172a" stroke="#334155"/>
      <rect x="24" y="24" rx="18" ry="18" width="78" height="78" fill="#1e293b" stroke="rgba(255,255,255,0.08)"/>
      <g transform="translate(37, 37)"><svg xmlns="http://www.w3.org/2000/svg" width="52" height="52" viewBox="0 0 24 24" fill="none" stroke="#22d3ee" stroke-width="2" stroke-linecap="round" stroke-linejoin="round" class="lucide lucide-soap-dispenser-droplet" aria-hidden="true"><path d="M10.5 2v4"></path><path d="M14 2H7a2 2 0 0 0-2 2"></path><path d="M19.29 14.76A6.67 6.67 0 0 1 17 11a6.6 6.6 0 0 1-2.29 3.76c-1.15.92-1.71 2.04-1.71 3.19 0 2.22 1.8 4.05 4 4.05s4-1.83 4-4.05c0-1.16-.57-2.26-1.71-3.19"></path><path d="M9.607 21H6a2 2 0 0 1-2-2v-7a2 2 0 0 1 2-2h7V7a1 1 0 0 0-1-1H9a1 1 0 0 0-1 1v3"></path></svg></g>
      <text x="124" y="50" fill="#f8fafc" font-size="24" font-family="Segoe UI, Arial, sans-serif" font-weight="700">SoapDispenserDroplet</text>
      <text x="124" y="82" fill="#94a3b8" font-size="17" font-family="Segoe UI, Arial, sans-serif">Best for skincare products</text>
    </g>
    <g transform="translate(470, 40)">
      <rect x="0" y="0" rx="24" ry="24" width="360" height="130" fill="#0f172a" stroke="#334155"/>
      <rect x="24" y="24" rx="18" ry="18" width="78" height="78" fill="#172554" stroke="rgba(255,255,255,0.08)"/>
      <g transform="translate(37, 37)"><svg xmlns="http://www.w3.org/2000/svg" width="52" height="52" viewBox="0 0 24 24" fill="none" stroke="#60a5fa" stroke-width="2" stroke-linecap="round" stroke-linejoin="round" class="lucide lucide-droplets" aria-hidden="true"><path d="M7 16.3c2.2 0 4-1.83 4-4.05 0-1.16-.57-2.26-1.71-3.19S7.29 6.75 7 5.3c-.29 1.45-1.14 2.84-2.29 3.76S3 11.1 3 12.25c0 2.22 1.8 4.05 4 4.05z"></path><path d="M12.56 6.6A10.97 10.97 0 0 0 14 3.02c.5 2.5 2 4.9 4 6.5s3 3.5 3 5.5a6.98 6.98 0 0 1-11.91 4.97"></path></svg></g>
      <text x="124" y="50" fill="#f8fafc" font-size="24" font-family="Segoe UI, Arial, sans-serif" font-weight="700">Droplets</text>
      <text x="124" y="82" fill="#94a3b8" font-size="17" font-family="Segoe UI, Arial, sans-serif">Clean hydration / serum feel</text>
    </g>
    <g transform="translate(40, 210)">
      <rect x="0" y="0" rx="24" ry="24" width="360" height="130" fill="#0f172a" stroke="#334155"/>
      <rect x="24" y="24" rx="18" ry="18" width="78" height="78" fill="#1f2937" stroke="rgba(255,255,255,0.08)"/>
      <g transform="translate(37, 37)"><svg xmlns="http://www.w3.org/2000/svg" width="52" height="52" viewBox="0 0 24 24" fill="none" stroke="#f472b6" stroke-width="2" stroke-linecap="round" stroke-linejoin="round" class="lucide lucide-scan-face" aria-hidden="true"><path d="M3 7V5a2 2 0 0 1 2-2h2"></path><path d="M17 3h2a2 2 0 0 1 2 2v2"></path><path d="M21 17v2a2 2 0 0 1-2 2h-2"></path><path d="M7 21H5a2 2 0 0 1-2-2v-2"></path><path d="M8 14s1.5 2 4 2 4-2 4-2"></path><path d="M9 9h.01"></path><path d="M15 9h.01"></path></svg></g>
      <text x="124" y="50" fill="#f8fafc" font-size="24" font-family="Segoe UI, Arial, sans-serif" font-weight="700">ScanFace</text>
      <text x="124" y="82" fill="#94a3b8" font-size="17" font-family="Segoe UI, Arial, sans-serif">Face-care / treatment feel</text>
    </g>
    <g transform="translate(470, 210)">
      <rect x="0" y="0" rx="24" ry="24" width="360" height="130" fill="#0f172a" stroke="#334155"/>
      <rect x="24" y="24" rx="18" ry="18" width="78" height="78" fill="#3f1d2e" stroke="rgba(255,255,255,0.08)"/>
      <g transform="translate(37, 37)"><svg xmlns="http://www.w3.org/2000/svg" width="52" height="52" viewBox="0 0 24 24" fill="none" stroke="#fb7185" stroke-width="2" stroke-linecap="round" stroke-linejoin="round" class="lucide lucide-brush" aria-hidden="true"><path d="m11 10 3 3"></path><path d="M6.5 21A3.5 3.5 0 1 0 3 17.5a2.62 2.62 0 0 1-.708 1.792A1 1 0 0 0 3 21z"></path><path d="M9.969 17.031 21.378 5.624a1 1 0 0 0-3.002-3.002L6.967 14.031"></path></svg></g>
      <text x="124" y="50" fill="#f8fafc" font-size="24" font-family="Segoe UI, Arial, sans-serif" font-weight="700">Brush</text>
      <text x="124" y="82" fill="#94a3b8" font-size="17" font-family="Segoe UI, Arial, sans-serif">More makeup / cosmetics</text>
    </g>
    <g transform="translate(40, 380)">
      <rect x="0" y="0" rx="24" ry="24" width="360" height="130" fill="#0f172a" stroke="#334155"/>
      <rect x="24" y="24" rx="18" ry="18" width="78" height="78" fill="#2e1065" stroke="rgba(255,255,255,0.08)"/>
      <g transform="translate(37, 37)"><svg xmlns="http://www.w3.org/2000/svg" width="52" height="52" viewBox="0 0 24 24" fill="none" stroke="#c084fc" stroke-width="2" stroke-linecap="round" stroke-linejoin="round" class="lucide lucide-sparkles" aria-hidden="true"><path d="M11.017 2.814a1 1 0 0 1 1.966 0l1.051 5.558a2 2 0 0 0 1.594 1.594l5.558 1.051a1 1 0 0 1 0 1.966l-5.558 1.051a2 2 0 0 0-1.594 1.594l-1.051 5.558a1 1 0 0 1-1.966 0l-1.051-5.558a2 2 0 0 0-1.594-1.594l-5.558-1.051a1 1 0 0 1 0-1.966l5.558-1.051a2 2 0 0 0 1.594-1.594z"></path><path d="M20 2v4"></path><path d="M22 4h-4"></path><circle cx="4" cy="20" r="2"></circle></svg></g>
      <text x="124" y="50" fill="#f8fafc" font-size="24" font-family="Segoe UI, Arial, sans-serif" font-weight="700">Sparkles</text>
      <text x="124" y="82" fill="#94a3b8" font-size="17" font-family="Segoe UI, Arial, sans-serif">Beauty / glow vibe</text>
    </g>
    <g transform="translate(470, 380)">
      <rect x="0" y="0" rx="24" ry="24" width="360" height="130" fill="#0f172a" stroke="#334155"/>
      <rect x="24" y="24" rx="18" ry="18" width="78" height="78" fill="#3f2b1d" stroke="rgba(255,255,255,0.08)"/>
      <g transform="translate(37, 37)"><svg xmlns="http://www.w3.org/2000/svg" width="52" height="52" viewBox="0 0 24 24" fill="none" stroke="#f59e0b" stroke-width="2" stroke-linecap="round" stroke-linejoin="round" class="lucide lucide-flower2 lucide-flower-2" aria-hidden="true"><path d="M12 5a3 3 0 1 1 3 3m-3-3a3 3 0 1 0-3 3m3-3v1M9 8a3 3 0 1 0 3 3M9 8h1m5 0a3 3 0 1 1-3 3m3-3h-1m-2 3v-1"></path><circle cx="12" cy="8" r="2"></circle><path d="M12 10v12"></path><path d="M12 22c4.2 0 7-1.667 7-5-4.2 0-7 1.667-7 5Z"></path><path d="M12 22c-4.2 0-7-1.667-7-5 4.2 0 7 1.667 7 5Z"></path></svg></g>
      <text x="124" y="50" fill="#f8fafc" font-size="24" font-family="Segoe UI, Arial, sans-serif" font-weight="700">Flower2</text>
      <text x="124" y="82" fill="#94a3b8" font-size="17" font-family="Segoe UI, Arial, sans-serif">Soft floral beauty look</text>
    </g>
</svg>