<?xml version="1.0" encoding="UTF-8"?>
<svg version="1.1" xmlns="http://www.w3.org/2000/svg" width="1280" height="1280">
<path d="M0 0 C4.59047442 0.64692014 8.48849167 2.44684129 12.625 4.4375 C13.7382666 4.96875488 13.7382666 4.96875488 14.87402344 5.51074219 C34.60053677 15.01540992 54.6693008 25.20577758 72.38378906 38.14257812 C75.38630524 40.42770117 75.38630524 40.42770117 78.97802734 40.73388672 C82.3452351 39.51173911 85.14262162 37.34578308 88.0625 35.3125 C93.27305088 31.76295716 98.4903717 28.48517832 104.078125 25.55078125 C106.96975403 24.01605301 109.81001354 22.41053692 112.65185547 20.78637695 C124.07041253 14.27185597 135.74913341 8.34432895 147.765625 3.0078125 C150.01292337 2.03526438 150.01292337 2.03526438 152.109375 0.8046875 C154 0 154 0 157 1 C156.30777344 1.44988281 155.61554688 1.89976562 154.90234375 2.36328125 C146.95626824 7.58738096 139.27690847 13.10796118 131.64892578 18.78271484 C130.22352029 19.83499079 128.78299902 20.86673344 127.33984375 21.89453125 C126.62957031 22.40371094 125.91929687 22.91289063 125.1875 23.4375 C124.60355469 23.84871094 124.01960938 24.25992188 123.41796875 24.68359375 C121.7110192 26.26828245 120.92324914 27.8787788 120 30 C119.34 30 118.68 30 118 30 C118.61277612 32.96175123 119.25372522 34.38058783 121 37 C121 37.99 121 38.98 121 40 C121.763125 39.814375 122.52625 39.62875 123.3125 39.4375 C126 39 126 39 129 40 C129.66 39.67 130.32 39.34 131 39 C136.55531248 38.4927035 141.41830236 38.23739578 146.5 40.6875 C153.80362538 47.44335347 153.80362538 47.44335347 154.203125 52.64453125 C154.22632813 54.21267578 154.22632813 54.21267578 154.25 55.8125 C154.28867187 57.36904297 154.28867187 57.36904297 154.328125 58.95703125 C153.96101749 62.36151636 152.9499248 64.22392285 151 67 C151.66 67 152.32 67 153 67 C152.25 71.75 152.25 71.75 150 74 C149.67 74.66 149.34 75.32 149 76 C149.66 76.33 150.32 76.66 151 77 C150.67 78.32 150.34 79.64 150 81 C149.34 80.67 148.68 80.34 148 80 C147.9254644 81.2236068 147.9254644 81.2236068 149 83 C154.63556972 80.81943969 159.24659135 77.94954236 164.1875 74.5 C178.0466322 65.0569589 193.25183556 55.94437756 209 50 C209.66 50.33 210.32 50.66 211 51 C210.28457031 51.46148438 209.56914062 51.92296875 208.83203125 52.3984375 C190.46200726 64.42331737 173.69026818 77.91875324 161 96 C160.41734375 96.81210937 159.8346875 97.62421875 159.234375 98.4609375 C155.59181078 103.70402237 152.72147626 109.23191537 150 115 C148 113 148 113 147 109.9375 C146.34247444 106.87849194 146.34247444 106.87849194 144 106 C144 109.95092517 144.18850893 110.63053818 145.984375 113.80859375 C149.01511495 120.32842631 148.4306419 127.01399218 148.25 134.0625 C148.22989291 135.41859325 148.21164961 136.77471547 148.1953125 138.13085938 C148.14847313 141.42132486 148.08288862 144.71027835 148 148 C147.34 147.67 146.68 147.34 146 147 C145.56300781 148.23363281 145.56300781 148.23363281 145.1171875 149.4921875 C139.62866617 164.4389154 130.95795421 178.34691852 118 188 C116.73985792 184.63962113 117.27667271 181.87319551 117.73999023 178.390625 C122.13377796 137.99253168 104.74062932 102.28097732 80.14453125 71.40625 C79.76683594 70.9421875 79.38914062 70.478125 79 70 C67.77002104 80.74610195 60.08686455 94.30974978 53 108 C52.66484375 108.63373535 52.3296875 109.2674707 51.984375 109.92041016 C39.42335711 133.87772041 34.74184952 161.42756096 40 188 C26.38294711 182.24014315 17.47897491 164.92401998 12 152 C6.65774831 134.67329701 9.84070624 117.71248843 18.01196289 101.92749023 C22.32937357 93.96599175 27.59013858 87.13990697 33.67431641 80.4609375 C34.94166171 79.0642903 36.18060044 77.6420234 37.41796875 76.21875 C41.95696338 71.03132757 46.67849392 66.37461888 52 62 C52.97195312 61.19820312 53.94390625 60.39640625 54.9453125 59.5703125 C57.6234057 57.37167332 60.30835523 55.1820135 63 53 C55.91160413 44.49392495 48.27919752 37.22034044 39.625 30.31298828 C37.8683774 28.89364989 36.13658044 27.44735342 34.40625 25.99609375 C26.30972241 19.24607513 17.98730953 13.06412531 9.20703125 7.22558594 C8.05847656 6.46036621 8.05847656 6.46036621 6.88671875 5.6796875 C6.20826904 5.23351074 5.52981934 4.78733398 4.83081055 4.32763672 C3.02690685 3.01951186 1.52674492 1.6183674 0 0 Z " fill="#8BCE6E" transform="translate(151,538)"/>
<path d="M0 0 C4.59047442 0.64692014 8.48849167 2.44684129 12.625 4.4375 C13.7382666 4.96875488 13.7382666 4.96875488 14.87402344 5.51074219 C34.60053677 15.01540992 54.6693008 25.20577758 72.38378906 38.14257812 C75.38630524 40.42770117 75.38630524 40.42770117 78.97802734 40.73388672 C82.3452351 39.51173911 85.14262162 37.34578308 88.0625 35.3125 C93.27305088 31.76295716 98.4903717 28.48517832 104.078125 25.55078125 C106.96975403 24.01605301 109.81001354 22.41053692 112.65185547 20.78637695 C124.07041253 14.27185597 135.74913341 8.34432895 147.765625 3.0078125 C150.01292337 2.03526438 150.01292337 2.03526438 152.109375 0.8046875 C154 0 154 0 157 1 C156.30777344 1.44988281 155.61554688 1.89976562 154.90234375 2.36328125 C142.41123117 10.57548834 130.43904871 19.37051831 119 29 C118.00484375 29.80953125 117.0096875 30.6190625 115.984375 31.453125 C99.77080038 44.79495873 84.09516807 59.86558424 72.20996094 77.23876953 C71.03429197 78.95008429 69.82503074 80.63122583 68.6015625 82.30859375 C62.7187934 90.51033838 57.70134947 99.08349584 53 108 C52.51635986 108.90806396 52.51635986 108.90806396 52.02294922 109.83447266 C39.44376583 133.81456952 34.73532329 161.39458018 40 188 C26.38294711 182.24014315 17.47897491 164.92401998 12 152 C6.65774831 134.67329701 9.84070624 117.71248843 18.01196289 101.92749023 C22.32937357 93.96599175 27.59013858 87.13990697 33.67431641 80.4609375 C34.94166171 79.0642903 36.18060044 77.6420234 37.41796875 76.21875 C41.95696338 71.03132757 46.67849392 66.37461888 52 62 C52.97195312 61.19820312 53.94390625 60.39640625 54.9453125 59.5703125 C57.6234057 57.37167332 60.30835523 55.1820135 63 53 C55.91160413 44.49392495 48.27919752 37.22034044 39.625 30.31298828 C37.8683774 28.89364989 36.13658044 27.44735342 34.40625 25.99609375 C26.30972241 19.24607513 17.98730953 13.06412531 9.20703125 7.22558594 C8.05847656 6.46036621 8.05847656 6.46036621 6.88671875 5.6796875 C6.20826904 5.23351074 5.52981934 4.78733398 4.83081055 4.32763672 C3.02690685 3.01951186 1.52674492 1.6183674 0 0 Z " fill="#F2F3F8" transform="translate(151,538)"/>
<path d="M0 0 C55.25628428 0 55.25628428 0 65.15234375 9.82421875 C71.1211586 16.85303455 71.77243206 24.20867401 71.38671875 33.1796875 C70.88329074 38.15294604 69.72972228 41.83405129 67 46 C66.43925781 46.85658203 66.43925781 46.85658203 65.8671875 47.73046875 C62.83996145 51.79015932 59.32907676 53.61976905 55 56 C60.08490214 66.43900498 65.48079518 76.66943095 71.13769531 86.81103516 C71.63881836 87.71644043 72.13994141 88.6218457 72.65625 89.5546875 C73.10806641 90.36405762 73.55988281 91.17342773 74.02539062 92.00732422 C75 94 75 94 75 96 C67.74 96 60.48 96 53 96 C42.95621546 77.01311964 42.95621546 77.01311964 38.875 68.9375 C38.31554687 67.83277344 37.75609375 66.72804688 37.1796875 65.58984375 C36 63 36 63 36 61 C30.72 61 25.44 61 20 61 C20 72.88 20 84.76 20 97 C13.4 97 6.8 97 0 97 C0 64.99 0 32.98 0 0 Z " fill="#8BCD6E" transform="translate(518,589)"/>
<path d="M0 0 C20 0 20 0 24.359375 4.34375 C25.29410025 6.20274204 26.1745657 8.08996834 27 10 C28.02678405 11.73082736 29.07378211 13.44982242 30.140625 15.15625 C31.1807813 16.93534311 32.21714264 18.71665956 33.25 20.5 C34.38175127 22.43421509 35.5145809 24.36779957 36.6484375 26.30078125 C37.20885742 27.25678223 37.76927734 28.2127832 38.34667969 29.19775391 C40.81713053 33.3849711 43.33774218 37.54050697 45.875 41.6875 C46.29040039 42.368125 46.70580078 43.04875 47.13378906 43.75 C50.6874976 49.54623086 54.34832233 55.26164938 58 61 C58.33 40.87 58.66 20.74 59 0 C65.6 0 72.2 0 79 0 C79 32.01 79 64.02 79 97 C72.07 97 65.14 97 58 97 C54 89.8125 54 89.8125 52.796875 87.63989258 C49.39194763 81.55660233 45.73558697 75.63532121 42.0612793 69.71188354 C40.3225351 66.90722355 38.59140326 64.09787324 36.859375 61.2890625 C36.18132813 60.18949219 35.50328125 59.08992187 34.8046875 57.95703125 C34.12664063 56.85746094 33.44859375 55.75789062 32.75 54.625 C32.05648437 53.50222656 31.36296875 52.37945313 30.6484375 51.22265625 C29.97554687 50.13082031 29.30265625 49.03898438 28.609375 47.9140625 C28.01092773 46.9442041 27.41248047 45.9743457 26.79589844 44.97509766 C24.80856091 41.68286069 22.90793225 38.33888143 21 35 C20.67 55.13 20.34 75.26 20 96 C13.4 96 6.8 96 0 96 C0 64.32 0 32.64 0 0 Z " fill="#F1F2F8" transform="translate(850,589)"/>
<path d="M0 0 C-1.63195312 0.78310547 -1.63195312 0.78310547 -3.296875 1.58203125 C-15.7857006 7.7623184 -27.66003872 14.98955813 -34 28 C-34.6496875 29.2065625 -34.6496875 29.2065625 -35.3125 30.4375 C-37.63637235 39.09920604 -35.21526191 46.28235136 -31 54 C-15.88943901 76.34509845 17.96140529 85.14111187 43 90 C57.09019331 92.55979396 70.94098716 94.14077555 85.2734375 94.30859375 C87.17138062 94.33155518 87.17138062 94.33155518 89.10766602 94.35498047 C93.19681386 94.39524916 97.28569709 94.42192617 101.375 94.4375 C102.41781506 94.44157301 102.41781506 94.44157301 103.48169708 94.4457283 C126.14296108 94.51486663 147.9125592 93.44379148 170 88 C171.15435547 87.7220459 172.30871094 87.4440918 173.49804688 87.15771484 C195.75256123 81.63934529 224.16226154 72.49100562 237 52 C240.95086734 45.41522111 240.75198351 38.52857913 240 31 C239.20380214 27.83113252 237.94932118 25.60794741 236 23 C235.41347656 22.21238281 234.82695312 21.42476562 234.22265625 20.61328125 C226.46772269 11.18316651 215.99449369 5.0574671 205 0 C207.43924729 -0.88242039 208.63574722 -1.12972696 211.11547852 -0.24658203 C211.86240967 0.16221191 212.60934082 0.57100586 213.37890625 0.9921875 C214.21260742 1.4454541 215.04630859 1.8987207 215.90527344 2.36572266 C217.22060059 3.11281494 217.22060059 3.11281494 218.5625 3.875 C219.91069824 4.63176025 219.91069824 4.63176025 221.28613281 5.40380859 C232.8035207 12.00747172 245.77748887 21.03641002 251.37109375 33.578125 C253.29601342 40.99085913 253.25772433 49.28966319 250.0625 56.3125 C235.18031355 81.25356039 204.79833168 90.27210214 178.40527344 97.15600586 C152.68515231 103.53071612 127.59855024 105.38510764 101.1875 105.375 C100.0325 105.37672211 98.8775 105.37844421 97.6875 105.38021851 C83.67025955 105.37785409 69.89847138 104.85980865 56 103 C55.20393845 102.8953241 54.40787689 102.79064819 53.58769226 102.68280029 C20.93781804 98.34277369 -18.91059603 88.75023587 -41.1171875 62.484375 C-47.36150947 54.24497921 -48.24905261 46.25537933 -47 36 C-45.85454533 32.22912267 -44.24498895 29.22681276 -42 26 C-41.52691406 25.31679688 -41.05382812 24.63359375 -40.56640625 23.9296875 C-33.22821668 14.59682795 -22.15087933 8.8945373 -11.875 3.375 C-11.04516602 2.92463379 -10.21533203 2.47426758 -9.36035156 2.01025391 C-8.57885742 1.60210449 -7.79736328 1.19395508 -6.9921875 0.7734375 C-6.29464355 0.40653809 -5.59709961 0.03963867 -4.87841797 -0.33837891 C-3 -1 -3 -1 0 0 Z " fill="#EDEFF4" transform="translate(130,664)"/>
<path d="M0 0 C8.04202455 4.34245066 11.11636822 10.17297589 14.58984375 18.3984375 C16.37027478 25.52016161 15.58984375 33.05753232 15.58984375 40.3984375 C0.73984375 40.3984375 -14.11015625 40.3984375 -29.41015625 40.3984375 C-25.64873947 49.4982184 -25.64873947 49.4982184 -18.41015625 54.3984375 C-10.61578606 55.12990916 -5.05995311 54.58534664 1.58984375 50.3984375 C2.24984375 49.7384375 2.90984375 49.0784375 3.58984375 48.3984375 C6.58984375 48.3984375 6.58984375 48.3984375 8.44921875 50.0078125 C9.073125 50.71421875 9.69703125 51.420625 10.33984375 52.1484375 C10.9740625 52.84453125 11.60828125 53.540625 12.26171875 54.2578125 C13.58984375 56.3984375 13.58984375 56.3984375 13.4140625 58.51171875 C10.58885901 64.97889071 3.72282821 67.80563106 -2.41015625 70.3984375 C-11.96795769 73.54454714 -22.63378886 71.80059823 -31.59765625 67.87890625 C-40.0673377 63.42056004 -45.02727818 56.79785832 -48.22265625 47.8359375 C-51.36803867 36.25521133 -50.37664838 22.88616225 -44.58203125 12.3046875 C-35.00111544 -3.28026888 -16.24148073 -7.72590805 0 0 Z " fill="#EFF1F6" transform="translate(991.41015625,615.6015625)"/>
<path d="M0 0 C0.82564453 -0.020625 1.65128906 -0.04125 2.50195312 -0.0625 C11.22154428 -0.11746984 17.58923897 2.19636741 23.98828125 8.16796875 C32.96668418 18.41526803 32.8125 30.12222715 32.8125 43.25 C17.6325 43.25 2.4525 43.25 -13.1875 43.25 C-9.42608322 52.3497809 -9.42608322 52.3497809 -2.1875 57.25 C5.65788334 57.91932641 11.3323595 57.85809991 17.8125 53.25 C18.4725 53.25 19.1325 53.25 19.8125 53.25 C19.8125 52.59 19.8125 51.93 19.8125 51.25 C23.66353301 51.78675903 25.13047587 53.36600923 27.5625 56.3125 C28.48289062 57.41271484 28.48289062 57.41271484 29.421875 58.53515625 C29.88078125 59.10105469 30.3396875 59.66695312 30.8125 60.25 C28.44098987 65.76763412 23.85158987 68.97554296 18.390625 71.265625 C16.21029864 71.99240045 14.02853127 72.64244902 11.8125 73.25 C10.8225 73.58 9.8325 73.91 8.8125 74.25 C-2.2272997 75.20657355 -12.44423676 73.43890533 -21.1875 66.25 C-29.45772662 58.65951804 -33.09768088 50.64897469 -33.70629883 39.41210938 C-33.92861086 29.0491397 -31.41628671 18.05621211 -24.84375 9.77734375 C-17.21922269 2.74623484 -10.077918 0.06149759 0 0 Z " fill="#8ACB6E" transform="translate(754.1875,612.75)"/>
<path d="M0 0 C0.7734375 -0.020625 1.546875 -0.04125 2.34375 -0.0625 C10.92690259 -0.12010505 17.16309404 2.36931897 23.42578125 8.23828125 C32.74365719 18.5138832 32.25 29.72612262 32.25 43.25 C17.07 43.25 1.89 43.25 -13.75 43.25 C-10.26811562 51.81485885 -10.26811562 51.81485885 -3.8984375 56.6953125 C2.39473706 58.32009575 8.88050448 58.29329123 14.75 55.375 C15.92442983 54.67961392 17.09141778 53.97148075 18.25 53.25 C19.57 52.59 20.89 51.93 22.25 51.25 C24.89 54.22 27.53 57.19 30.25 60.25 C27.23070541 66.28858917 22.32631155 69.63779875 16.0625 72.0625 C5.76860089 75.26879644 -4.67845319 75.45766845 -14.75 71.25 C-23.36993909 66.11876067 -29.1243503 59.20042209 -32.14355469 49.68505859 C-33.11697307 45.7764938 -33.2409843 42.01298098 -33.1875 38 C-33.17775146 37.17443604 -33.16800293 36.34887207 -33.15795898 35.49829102 C-32.83009919 24.07209936 -30.22110244 15.54720248 -22.0625 7.28125 C-15.15764108 1.21617122 -8.89150086 0.05811438 0 0 Z " fill="#8CCD6E" transform="translate(633.75,612.75)"/>
<path d="M0 0 C0 0.99 0 1.98 0 3 C-0.66 2.67 -1.32 2.34 -2 2 C-1.34 1.34 -0.68 0.68 0 0 Z M-2 3 C-1.87625 3.598125 -1.7525 4.19625 -1.625 4.8125 C-1.04524015 7.26231348 -1.04524015 7.26231348 1 10 C1 10.99 1 11.98 1 13 C1.763125 12.814375 2.52625 12.62875 3.3125 12.4375 C6 12 6 12 9 13 C9.66 12.67 10.32 12.34 11 12 C16.55531248 11.4927035 21.41830236 11.23739578 26.5 13.6875 C33.80362538 20.44335347 33.80362538 20.44335347 34.203125 25.64453125 C34.21859375 26.68996094 34.2340625 27.73539063 34.25 28.8125 C34.27578125 29.85019531 34.3015625 30.88789062 34.328125 31.95703125 C33.96101749 35.36151636 32.9499248 37.22392285 31 40 C31.66 40 32.32 40 33 40 C32.25 44.75 32.25 44.75 30 47 C29.505 47.99 29.505 47.99 29 49 C29.99 49.495 29.99 49.495 31 50 C30.67 51.32 30.34 52.64 30 54 C29.01 53.505 29.01 53.505 28 53 C27.9254644 54.2236068 27.9254644 54.2236068 29 56 C34.63556972 53.81943969 39.24659135 50.94954236 44.1875 47.5 C58.0466322 38.0569589 73.25183556 28.94437756 89 23 C89.66 23.33 90.32 23.66 91 24 C90.28457031 24.46148438 89.56914062 24.92296875 88.83203125 25.3984375 C70.46200726 37.42331737 53.69026818 50.91875324 41 69 C40.41734375 69.81210937 39.8346875 70.62421875 39.234375 71.4609375 C35.59181078 76.70402237 32.72147626 82.23191537 30 88 C28 86 28 86 27 82.9375 C26.34247444 79.87849194 26.34247444 79.87849194 24 79 C24 82.95092517 24.18850893 83.63053818 25.984375 86.80859375 C29.01511495 93.32842631 28.4306419 100.01399218 28.25 107.0625 C28.22989291 108.41859325 28.21164961 109.77471547 28.1953125 111.13085938 C28.14847313 114.42132486 28.08288862 117.71027835 28 121 C27.01 120.505 27.01 120.505 26 120 C26.02618408 119.41734375 26.05236816 118.8346875 26.0793457 118.234375 C27.12483863 91.30035968 18.79874536 71.8242652 0.5 51.8125 C-1.31854594 49.86008494 -3.15653259 47.92921008 -5 46 C-5.763125 45.195625 -6.52625 44.39125 -7.3125 43.5625 C-12.13688472 38.60027571 -17.27111018 34.21760973 -22.71484375 29.9453125 C-25 28 -25 28 -27 25 C-5.27579556 3 -5.27579556 3 -2 3 Z " fill="#101822" transform="translate(271,565)"/>
<path d="M0 0 C3.27036728 -0.14510162 6.53991007 -0.23399373 9.8125 -0.3125 C11.2056543 -0.3753418 11.2056543 -0.3753418 12.62695312 -0.43945312 C15.16858772 -0.48533101 17.49865672 -0.45608125 20 0 C21.875 2.0625 21.875 2.0625 23 5 C23.66318315 6.19366205 24.34559024 7.37676924 25.04296875 8.55078125 C25.75836795 9.80437068 26.47320296 11.05828223 27.1875 12.3125 C27.55552734 12.95767578 27.92355469 13.60285156 28.30273438 14.26757812 C29.20231783 15.8447699 30.10122804 17.42234565 31 19 C33.24830883 16.91006261 34.78046574 14.89046062 36.26171875 12.20703125 C36.79865356 11.24373901 36.79865356 11.24373901 37.34643555 10.26098633 C38.01026245 9.0489856 38.01026245 9.0489856 38.6875 7.8125 C40.110625 5.234375 41.53375 2.65625 43 0 C49.93 0 56.86 0 64 0 C62.80375 2.083125 61.6075 4.16625 60.375 6.3125 C57.29972887 11.67716051 54.30905433 17.07923916 51.390625 22.53125 C49.69980517 25.53293014 47.79796341 28.35389789 45.78515625 31.1484375 C44.66367419 33.79312653 45.24566171 35.23824705 46 38 C47.02192382 40.03623941 48.12188531 42.03416003 49.2734375 44 C49.9334375 45.134375 50.5934375 46.26875 51.2734375 47.4375 C51.97382215 48.62508032 52.6743442 49.81257963 53.375 51 C54.06835287 52.18712379 54.7610675 53.37462059 55.453125 54.5625 C59.02516177 60.69361518 59.02516177 60.69361518 62.72119141 66.75 C64 69 64 69 64 71 C57.4 71 50.8 71 44 71 C40.04 64.07 36.08 57.14 32 50 C28.84139377 55.41296544 28.84139377 55.41296544 25.68823242 60.82910156 C25.0903894 61.84955566 25.0903894 61.84955566 24.48046875 62.890625 C24.07723389 63.58188477 23.67399902 64.27314453 23.25854492 64.98535156 C22.8432251 65.65018555 22.42790527 66.31501953 22 67 C21.55011719 67.73669922 21.10023437 68.47339844 20.63671875 69.23242188 C19 71 19 71 16.82348633 71.45410156 C16.00130615 71.4331543 15.17912598 71.41220703 14.33203125 71.390625 C13.43935547 71.37773438 12.54667969 71.36484375 11.62695312 71.3515625 C10.69818359 71.31804687 9.76941406 71.28453125 8.8125 71.25 C7.87212891 71.23195313 6.93175781 71.21390625 5.96289062 71.1953125 C3.64090111 71.1481655 1.3209631 71.08238231 -1 71 C0.30352119 67.5610526 1.80440468 64.41684413 3.64453125 61.234375 C4.15693359 60.34363281 4.66933594 59.45289063 5.19726562 58.53515625 C5.73029297 57.61605469 6.26332031 56.69695313 6.8125 55.75 C8.37646031 53.03965099 9.93888948 50.32864188 11.49072266 47.61132812 C12.4834806 45.8936738 13.49834964 44.18857848 14.53662109 42.49804688 C15.00277832 41.72009766 15.46893555 40.94214844 15.94921875 40.140625 C16.36905029 39.46032227 16.78888184 38.78001953 17.22143555 38.07910156 C18.271262 35.27561393 17.89900441 33.84144344 17 31 C16.05096767 29.10948095 15.02476823 27.25670312 13.9453125 25.4375 C13.33042969 24.39335938 12.71554687 23.34921875 12.08203125 22.2734375 C11.11330078 20.65308594 11.11330078 20.65308594 10.125 19 C9.48691406 17.91976562 8.84882812 16.83953125 8.19140625 15.7265625 C4.79165769 9.97174787 4.79165769 9.97174787 1.29248047 4.27734375 C0 2 0 2 0 0 Z " fill="#F1F2F8" transform="translate(1014,614)"/>
<path d="M0 0 C1.13308594 -0.00257813 2.26617188 -0.00515625 3.43359375 -0.0078125 C6.5625 0.125 6.5625 0.125 10.5625 1.125 C10.5625 6.075 10.5625 11.025 10.5625 16.125 C7.9946875 16.2178125 7.9946875 16.2178125 5.375 16.3125 C1.56385318 16.68527627 -0.25291052 17.01055452 -3.5625 19.0625 C-6.24742223 23.44787297 -6.2328111 27.00777757 -6.4375 32.125 C-1.8175 32.125 2.8025 32.125 7.5625 32.125 C7.5625 36.745 7.5625 41.365 7.5625 46.125 C2.9425 46.125 -1.6775 46.125 -6.4375 46.125 C-6.4375 64.935 -6.4375 83.745 -6.4375 103.125 C-12.7075 103.125 -18.9775 103.125 -25.4375 103.125 C-25.4375 84.315 -25.4375 65.505 -25.4375 46.125 C-29.0675 46.125 -32.6975 46.125 -36.4375 46.125 C-36.4375 41.505 -36.4375 36.885 -36.4375 32.125 C-32.8075 32.125 -29.1775 32.125 -25.4375 32.125 C-25.48970703 30.8565625 -25.48970703 30.8565625 -25.54296875 29.5625 C-25.75135903 20.82995496 -25.20485531 15.23649932 -20.25 7.875 C-14.48791454 2.24096088 -7.98542762 -0.0181281 0 0 Z " fill="#8BCD6E" transform="translate(707.4375,581.875)"/>
<path d="M0 0 C6.75216486 0.02153801 13.41684776 0.48622698 20.13671875 1.1328125 C20.13671875 2.4528125 20.13671875 3.7728125 20.13671875 5.1328125 C20.79671875 5.1328125 21.45671875 5.1328125 22.13671875 5.1328125 C21.80671875 6.1228125 21.47671875 7.1128125 21.13671875 8.1328125 C20.47671875 8.1328125 19.81671875 8.1328125 19.13671875 8.1328125 C19.46671875 9.1228125 19.79671875 10.1128125 20.13671875 11.1328125 C21.12671875 11.4628125 22.11671875 11.7928125 23.13671875 12.1328125 C23.13671875 12.4628125 23.13671875 12.7928125 23.13671875 13.1328125 C20.82671875 13.7928125 18.51671875 14.4528125 16.13671875 15.1328125 C15.80671875 24.7028125 15.47671875 34.2728125 15.13671875 44.1328125 C17.11671875 44.7928125 19.09671875 45.4528125 21.13671875 46.1328125 C22.13671875 48.1328125 22.13671875 48.1328125 22.13671875 50.1328125 C21.47671875 50.7928125 20.81671875 51.4528125 20.13671875 52.1328125 C18.81671875 52.1328125 17.49671875 52.1328125 16.13671875 52.1328125 C16.13671875 53.4528125 16.13671875 54.7728125 16.13671875 56.1328125 C18.11671875 55.6378125 18.11671875 55.6378125 20.13671875 55.1328125 C20.13671875 56.4528125 20.13671875 57.7728125 20.13671875 59.1328125 C23.76671875 59.1328125 27.39671875 59.1328125 31.13671875 59.1328125 C31.13671875 59.4628125 31.13671875 59.7928125 31.13671875 60.1328125 C26.18671875 60.1328125 21.23671875 60.1328125 16.13671875 60.1328125 C16.13671875 72.0128125 16.13671875 83.8928125 16.13671875 96.1328125 C9.53671875 96.1328125 2.93671875 96.1328125 -3.86328125 96.1328125 C-3.86328125 95.8028125 -3.86328125 95.4728125 -3.86328125 95.1328125 C2.40671875 95.1328125 8.67671875 95.1328125 15.13671875 95.1328125 C15.13671875 93.8128125 15.13671875 92.4928125 15.13671875 91.1328125 C14.47671875 91.1328125 13.81671875 91.1328125 13.13671875 91.1328125 C12.80671875 92.1228125 12.47671875 93.1128125 12.13671875 94.1328125 C7.18671875 94.1328125 2.23671875 94.1328125 -2.86328125 94.1328125 C-2.88640303 82.02439306 -2.90419549 69.91597883 -2.91509342 57.80754185 C-2.92032261 52.18573288 -2.92742091 46.56393897 -2.9387207 40.94213867 C-2.94954831 35.52162973 -2.95555781 30.1011353 -2.95815849 24.68061638 C-2.96001297 22.60766305 -2.96363402 20.53471056 -2.96901131 18.46176338 C-2.97622005 15.56897357 -2.97727226 12.67624454 -2.97680664 9.78344727 C-2.98040192 8.91742386 -2.98399719 8.05140045 -2.98770142 7.15913391 C-2.97551879 0.21209149 -2.97551879 0.21209149 0 0 Z " fill="#8ACE6D" transform="translate(521.86328125,589.8671875)"/>
<path d="M0 0 C0 6.27 0 12.54 0 19 C-1.65 18.938125 -3.3 18.87625 -5 18.8125 C-10.39773173 18.80552619 -14.14675878 19.66325423 -19 22 C-20.20953395 24.41906791 -20.15679908 26.02166308 -20.20532227 28.72509766 C-20.22526749 29.70596344 -20.24521271 30.68682922 -20.26576233 31.69741821 C-20.29083107 33.28965714 -20.29083107 33.28965714 -20.31640625 34.9140625 C-20.33718735 35.99883881 -20.35796844 37.08361511 -20.37937927 38.20126343 C-20.44490634 41.67577621 -20.50377447 45.15036624 -20.5625 48.625 C-20.60568221 50.97657058 -20.6492964 53.32813326 -20.69335938 55.6796875 C-20.80059098 61.45304529 -20.90184955 67.22648098 -21 73 C-27.6 73 -34.2 73 -41 73 C-41 49.24 -41 25.48 -41 1 C-34.73 1 -28.46 1 -22 1 C-21.67 2.98 -21.34 4.96 -21 7 C-20.45730469 6.50628906 -19.91460938 6.01257813 -19.35546875 5.50390625 C-18.64003906 4.86324219 -17.92460938 4.22257813 -17.1875 3.5625 C-16.47980469 2.92441406 -15.77210938 2.28632812 -15.04296875 1.62890625 C-10.60142325 -1.91244073 -5.21852799 -1.73950933 0 0 Z " fill="#87C76C" transform="translate(838,613)"/>
<path d="M0 0 C0.99 0 1.98 0 3 0 C3 0.99 3 1.98 3 3 C5.97 3.495 5.97 3.495 9 4 C9.66 3.01 10.32 2.02 11 1 C16.27276441 2.00433608 18.7402576 4.20431225 21.67578125 8.48046875 C26.57297106 17.79813079 26 27.62954939 26 38 C10.82 38 -4.36 38 -20 38 C-18.68 37.01 -17.36 36.02 -16 35 C-16 34.01 -16 33.02 -16 32 C-18.31 31.67 -20.62 31.34 -23 31 C-23 30.34 -23 29.68 -23 29 C-20.69 28.01 -18.38 27.02 -16 26 C-17.32 25.67 -18.64 25.34 -20 25 C-18.91150816 19.64824844 -18.03763676 15.92227571 -14 12 C-11.25 10.6875 -11.25 10.6875 -9 10 C-9 9.34 -9 8.68 -9 8 C-8.22914063 7.93941406 -7.45828125 7.87882813 -6.6640625 7.81640625 C-5.66117188 7.73261719 -4.65828125 7.64882813 -3.625 7.5625 C-2.62726562 7.48128906 -1.62953125 7.40007813 -0.6015625 7.31640625 C1.97927613 7.15034374 1.97927613 7.15034374 4 6 C4 5.34 4 4.68 4 4 C2.68 4 1.36 4 0 4 C0 2.68 0 1.36 0 0 Z " fill="#8ACC6D" transform="translate(640,618)"/>
<path d="M0 0 C0.66 0 1.32 0 2 0 C2 129.36 2 258.72 2 392 C1.01 391.67 0.02 391.34 -1 391 C-1.02286413 341.33332787 -1.04049708 291.66665627 -1.05106533 241.99997992 C-1.05231611 236.14297163 -1.05361043 230.28596335 -1.05493164 224.42895508 C-1.05519395 223.26287763 -1.05545626 222.09680018 -1.05572652 220.89538705 C-1.06008371 201.98793765 -1.06797153 183.08049128 -1.0771528 164.17304368 C-1.08648798 144.78767631 -1.09205532 125.40231053 -1.09408849 106.01694101 C-1.095464 94.04485512 -1.0998161 82.07277779 -1.10791647 70.10069453 C-1.11318226 61.90288966 -1.11480468 53.70508924 -1.11350138 45.5072828 C-1.11285773 40.77005471 -1.11387845 36.03284161 -1.11920547 31.29561615 C-1.12403868 26.96618304 -1.12433917 22.63677513 -1.12089889 18.30734091 C-1.12047312 16.73398174 -1.12176952 15.16062105 -1.12488318 13.5872649 C-1.12884599 11.46275241 -1.12676414 9.33833315 -1.12304783 7.21382236 C-1.12342755 6.02947465 -1.12380727 4.84512694 -1.1241985 3.62488991 C-1 1 -1 1 0 0 Z " fill="#F2F8FC" transform="translate(449,444)"/>
<path d="M0 0 C5.01791684 2.41935276 8.49958655 5.9991731 11 11 C11.58896479 16.54468284 12.13481131 22.18830855 8.9375 27 C5.55524028 30.8749138 1.9137873 33.55250736 -3.23828125 34.34375 C-8.20750471 34.54418927 -11.82579345 33.87556451 -16 31 C-20.36565389 26.66509015 -23.08415095 23.1328736 -23.375 16.8125 C-23.28801987 10.13677493 -20.07407457 6.02348739 -15.4375 1.5 C-10.29517977 -0.74392156 -5.52295971 -0.75106183 0 0 Z " fill="#8BCE6F" transform="translate(294,577)"/>
<path d="M0 0 C4.80949906 2.27136406 9.1596577 5.93905866 11 11 C11.70698889 17.00940556 11.46521945 21.86191599 8 27 C3.558773 32.28145914 -0.1202507 33.67486701 -6.875 34.4375 C-11.81910116 34.28595667 -15.3232247 32.19684224 -19 29 C-22.49451052 25.2208243 -23.27963005 21.51289541 -23.5 16.4375 C-23.30573712 11.54743451 -22.35016569 8.71234576 -19 5 C-12.91535056 -0.36028641 -8.03257204 -1.06564785 0 0 Z " fill="#F2F3F9" transform="translate(177,577)"/>
<path d="M0 0 C3.50625 -0.0825 7.0125 -0.165 10.625 -0.25 C11.71893066 -0.28641602 12.81286133 -0.32283203 13.93994141 -0.36035156 C19.98302641 -0.42908597 23.40866279 -0.032327 28 4 C31.59964232 7.95960656 31.50927414 12.21549226 31.34375 17.33984375 C30.84543364 21.19613285 29.70670583 23.22389146 27 26 C21.12079363 29.2228462 16.17266669 29.37164385 9.5625 29.1875 C4.8290625 29.0946875 4.8290625 29.0946875 0 29 C0 19.43 0 9.86 0 0 Z " fill="#101821" transform="translate(538,605)"/>
<path d="M0 0 C4.67642597 1.42950656 8.96795992 3.34585374 13.3125 5.5625 C14.00182617 5.91183594 14.69115234 6.26117187 15.40136719 6.62109375 C17.60386428 7.74171473 19.80208235 8.8704275 22 10 C22.72815918 10.37108887 23.45631836 10.74217773 24.20654297 11.12451172 C41.93449264 20.17968192 57.55537007 31.45978056 73 44 C72.08500726 48.72181437 69.67367164 52.70070953 67.47265625 56.9296875 C66.04456857 59.90707985 64.9737253 62.84832873 64 66 C61.31998991 63.61163806 59.87999733 61.1196577 58.25 57.9375 C53.02998633 48.19005433 46.60593846 39.99750784 39 32 C38.54995605 31.52272461 38.09991211 31.04544922 37.63623047 30.55371094 C27.61436561 19.98444776 16.68934027 11.44392597 4.31689453 3.77856445 C2.86348545 2.87521162 1.42944273 1.94081763 0 1 C0 0.67 0 0.34 0 0 Z " fill="#EEF0F5" transform="translate(95,587)"/>
<path d="M0 0 C0.061875 1.093125 0.12375 2.18625 0.1875 3.3125 C0.455625 4.529375 0.72375 5.74625 1 7 C2.64333504 8.03789581 4.31243867 9.03567924 6 10 C9 17 9 17 9 33 C-4.2 33 -17.4 33 -31 33 C-31 32.67 -31 32.34 -31 32 C-29.02 32 -27.04 32 -25 32 C-25 31.34 -25 30.68 -25 30 C-27.97 30 -30.94 30 -34 30 C-34 29.34 -34 28.68 -34 28 C-35.98 28 -37.96 28 -40 28 C-40.33 26.68 -40.66 25.36 -41 24 C-35.2881041 22.03436781 -30.32185863 21.78341388 -24.3125 21.9375 C-22.64201617 21.97206173 -20.97143295 22.00217136 -19.30078125 22.02734375 C-18.57028564 22.04531006 -17.83979004 22.06327637 -17.0871582 22.08178711 C-14.93008556 21.99726034 -13.06961773 21.59569733 -11 21 C-11.03480469 20.15695312 -11.06960938 19.31390625 -11.10546875 18.4453125 C-11.13253906 17.34960938 -11.15960937 16.25390625 -11.1875 15.125 C-11.23970703 13.48917969 -11.23970703 13.48917969 -11.29296875 11.8203125 C-11.19628906 10.88960937 -11.09960938 9.95890625 -11 9 C-10.01 8.34 -9.02 7.68 -8 7 C-7.63239269 4.67182036 -7.29758419 2.3381615 -7 0 C-4.3333581 -1.33332095 -2.83319697 -0.67102033 0 0 Z " fill="#8CCF6E" transform="translate(777,622)"/>
<path d="M0 0 C0.99 0.495 0.99 0.495 2 1 C1.28457031 1.46148438 0.56914062 1.92296875 -0.16796875 2.3984375 C-18.53799274 14.42331737 -35.30973182 27.91875324 -48 46 C-48.87398438 47.21816406 -48.87398438 47.21816406 -49.765625 48.4609375 C-53.40818922 53.70402237 -56.27852374 59.23191537 -59 65 C-61.20107715 62.79892285 -61.79268791 61.26414715 -62.875 58.375 C-64.17841998 54.97627092 -65.59276254 51.76989961 -67.3125 48.5625 C-69 45 -69 45 -68 42 C-49.87817737 24.79306551 -23.63019591 8.14373983 0 0 Z " fill="#8ACA6E" transform="translate(360,588)"/>
<path d="M0 0 C4.59047442 0.64692014 8.48849167 2.44684129 12.625 4.4375 C13.7382666 4.96875488 13.7382666 4.96875488 14.87402344 5.51074219 C37.06461325 16.20265613 58.49930642 28.3507833 79 42 C75.74920157 44.60987724 72.48081026 47.19399801 69.1875 49.75 C68.00220703 50.67039062 68.00220703 50.67039062 66.79296875 51.609375 C66.20128906 52.06828125 65.60960937 52.5271875 65 53 C61.04785454 49.72056015 57.33330987 46.36765608 53.75 42.6875 C49.75505056 38.65226536 45.5554242 35.04254416 41.12109375 31.5 C38.86047182 29.68923901 36.62865867 27.86079314 34.41015625 26 C26.31275446 19.24805691 17.98888078 13.06517013 9.20703125 7.22558594 C8.05847656 6.46036621 8.05847656 6.46036621 6.88671875 5.6796875 C6.20826904 5.23351074 5.52981934 4.78733398 4.83081055 4.32763672 C3.02690685 3.01951186 1.52674492 1.6183674 0 0 Z " fill="#8BCA6F" transform="translate(151,538)"/>
<path d="M0 0 C1.29487016 3.88461047 1.1232604 7.55883956 1.09765625 11.60546875 C1.0962413 12.44467361 1.09482635 13.28387848 1.09336853 14.14851379 C1.08777215 16.82821216 1.07522035 19.5078269 1.0625 22.1875 C1.05748453 24.00455608 1.05292171 25.82161348 1.04882812 27.63867188 C1.03780391 32.09248013 1.02054178 36.54622589 1 41 C-0.4214619 40.88840153 -1.84187145 40.76335675 -3.26171875 40.6328125 C-4.44834106 40.53057373 -4.44834106 40.53057373 -5.65893555 40.42626953 C-10.27199833 39.58630628 -13.60882455 36.96625101 -16.28515625 33.18359375 C-17.26686214 31.49815604 -18.14095145 29.75113744 -19 28 C-19.33 27.34 -19.66 26.68 -20 26 C-20.72182361 18.97109467 -20.50338899 12.6976579 -16 7 C-10.80131386 2.29446986 -7.07338408 -0.15376922 0 0 Z " fill="#F1F3F7" transform="translate(229,514)"/>
<path d="M0 0 C8.27081392 0.7449814 13.52617022 2.61162372 19 9 C22.68178341 14.58205872 23.54344224 20.13457727 22.3125 26.625 C19.8640118 32.92111253 16.52551635 37.09963552 11 41 C6.89225653 42.51337917 3.37246543 43.26499791 -1 43 C0.485 42.505 0.485 42.505 2 42 C1.88164153 36.66130986 1.7573854 31.32280168 1.62768555 25.984375 C1.58440014 24.16865766 1.54272056 22.35290129 1.50268555 20.53710938 C1.44482798 17.92566167 1.38117828 15.31440923 1.31640625 12.703125 C1.29133751 11.48728729 1.29133751 11.48728729 1.26576233 10.24688721 C1.17228604 6.68275277 0.95375416 3.43312065 0 0 Z " fill="#287E09" transform="translate(228,513)"/>
<path d="M0 0 C-1.63195312 0.78310547 -1.63195312 0.78310547 -3.296875 1.58203125 C-15.7857006 7.7623184 -27.66003872 14.98955813 -34 28 C-34.6496875 29.2065625 -34.6496875 29.2065625 -35.3125 30.4375 C-37.66404572 39.20235223 -34.92753452 46.07352124 -31 54 C-30.34 54.99 -29.68 55.98 -29 57 C-31.89234315 57.82638376 -33.88742431 58 -37 58 C-36.67 60.31 -36.34 62.62 -36 65 C-36.99 65 -37.98 65 -39 65 C-40.53515625 63.20703125 -40.53515625 63.20703125 -42.0625 60.8125 C-42.56910156 60.03519531 -43.07570313 59.25789062 -43.59765625 58.45703125 C-47.74021025 51.19890739 -47.80516519 44.15229755 -47 36 C-45.86886434 32.22281484 -44.24558844 29.22767443 -42 26 C-41.52691406 25.31679688 -41.05382812 24.63359375 -40.56640625 23.9296875 C-33.22821668 14.59682795 -22.15087933 8.8945373 -11.875 3.375 C-11.04516602 2.92463379 -10.21533203 2.47426758 -9.36035156 2.01025391 C-8.57885742 1.60210449 -7.79736328 1.19395508 -6.9921875 0.7734375 C-6.29464355 0.40653809 -5.59709961 0.03963867 -4.87841797 -0.33837891 C-3 -1 -3 -1 0 0 Z " fill="#EFF0F7" transform="translate(130,664)"/>
<path d="M0 0 C3.85103301 0.53675903 5.31797587 2.11600923 7.75 5.0625 C8.36359375 5.79597656 8.9771875 6.52945313 9.609375 7.28515625 C10.29773438 8.13400391 10.29773438 8.13400391 11 9 C8.62848987 14.51763412 4.03908987 17.72554296 -1.421875 20.015625 C-3.60220136 20.74240045 -5.78396873 21.39244902 -8 22 C-8.99 22.33 -9.98 22.66 -11 23 C-13.14413223 23.09504628 -15.2912677 23.12987226 -17.4375 23.125 C-18.57058594 23.12757813 -19.70367188 23.13015625 -20.87109375 23.1328125 C-23.45221183 23.02325193 -25.54944405 22.75864877 -28 22 C-27.34 20.68 -26.68 19.36 -26 18 C-23.69 18.33 -21.38 18.66 -19 19 C-19.99 18.34 -20.98 17.68 -22 17 C-21.34 16.34 -20.68 15.68 -20 15 C-20.515625 14.608125 -21.03125 14.21625 -21.5625 13.8125 C-22.036875 13.214375 -22.51125 12.61625 -23 12 C-22.58984375 9.38671875 -22.58984375 9.38671875 -22 7 C-21.14277344 6.97421875 -20.28554688 6.9484375 -19.40234375 6.921875 C-12.40381177 6.57470994 -7.78031681 5.98199602 -2 2 C-1.34 2 -0.68 2 0 2 C0 1.34 0 0.68 0 0 Z " fill="#89C96E" transform="translate(774,664)"/>
<path d="M0 0 C0.66 0 1.32 0 2 0 C2 129.36 2 258.72 2 392 C1.01 391.67 0.02 391.34 -1 391 C-0.67 390.34 -0.34 389.68 0 389 C0.09533692 386.89467406 0.12372548 384.78623051 0.12304783 382.67874718 C0.1247786 381.6901196 0.1247786 381.6901196 0.12654433 380.68151975 C0.12921168 378.45150391 0.12468786 376.22155887 0.12025452 373.99154663 C0.12069019 372.38527301 0.12156504 370.77899945 0.12284368 369.17272627 C0.12508932 364.74202375 0.12106641 360.31134521 0.11606562 355.88064575 C0.11176229 351.10899351 0.11320746 346.33734272 0.1139679 341.56568909 C0.11449321 333.29289808 0.11134567 325.02011493 0.10573006 316.7473259 C0.09761601 304.78614148 0.09499993 292.82496089 0.09374207 280.86377402 C0.0915514 261.45931073 0.0848909 242.05485163 0.07543945 222.65039062 C0.06626572 203.79654969 0.0591847 184.9427099 0.05493164 166.08886719 C0.05466892 164.92745135 0.05440619 163.76603552 0.05413551 162.56942527 C0.05283051 156.74316283 0.05156679 150.91690038 0.05032361 145.09063792 C0.03995053 96.72708905 0.0223318 48.36354473 0 0 Z " fill="#E8ECF5" transform="translate(449,444)"/>
<path d="M0 0 C3.60570972 1.26867564 5.43623501 2.32348202 7.875 5.25 C9 8 9 8 9 15 C0.09 15 -8.82 15 -18 15 C-15.21924193 3.87696773 -11.59748529 -1.26878472 0 0 Z " fill="#152223" transform="translate(638,628)"/>
<path d="M0 0 C3.12578143 1.6720747 5.39281175 3.7856235 7 7 C7 9.64 7 12.28 7 15 C-1.58 15 -10.16 15 -19 15 C-17.87237546 7.10662824 -17.87237546 7.10662824 -15.0625 4.125 C-14.53785156 3.55007813 -14.01320313 2.97515625 -13.47265625 2.3828125 C-9.75443409 -1.10856852 -4.79549003 -0.675628 0 0 Z " fill="#0E1621" transform="translate(760,628)"/>
<path d="M0 0 C3.39488422 2.05107588 4.80323081 3.70484621 7 7 C7 9.64 7 12.28 7 15 C-1.58 15 -10.16 15 -19 15 C-17.61386139 5.2970297 -17.61386139 5.2970297 -12.9375 1.1875 C-8.61220704 -0.56102269 -4.60030063 -0.69609812 0 0 Z " fill="#1A1F2C" transform="translate(981,628)"/>
<path d="M0 0 C4.67642597 1.42950656 8.96795992 3.34585374 13.3125 5.5625 C14.00182617 5.91183594 14.69115234 6.26117187 15.40136719 6.62109375 C17.60386428 7.74171473 19.80208235 8.8704275 22 10 C22.72815918 10.37108887 23.45631836 10.74217773 24.20654297 11.12451172 C33.55646114 15.90030937 42.39561486 20.9595478 51 27 C51.99 27.66 52.98 28.32 54 29 C53 31 53 31 50 33 C49 31 48 29 47 27 C45.35 27.66 43.7 28.32 42 29 C43.98 31.97 43.98 31.97 46 35 C45.01 35.33 44.02 35.66 43 36 C42.37508667 35.351521 42.37508667 35.351521 41.73754883 34.68994141 C30.14908356 22.72488677 18.50441496 12.57090242 4.31591797 3.77758789 C2.86275023 2.87469906 1.42906692 1.94057028 0 1 C0 0.67 0 0.34 0 0 Z " fill="#EDEEF4" transform="translate(95,587)"/>
<path d="M0 0 C15.72311821 1.78237777 31.42672983 15.61628713 41.44140625 26.859375 C43.10870965 29.14930548 44.06391149 31.33610633 45 34 C44.01 33.67 43.02 33.34 42 33 C41.54625 33.495 41.0925 33.99 40.625 34.5 C39 36 39 36 37 36 C37 37.98 37 39.96 37 42 C36.67 42 36.34 42 36 42 C35.97421875 41.3709375 35.9484375 40.741875 35.921875 40.09375 C35.17297559 28.79217709 30.32193564 21.61568933 22 14 C15.21269498 8.83988473 7.73547762 4.55831971 0 1 C0 0.67 0 0.34 0 0 Z " fill="#E6E7EE" transform="translate(335,663)"/>
<path d="M0 0 C0.99 0.33 1.98 0.66 3 1 C2.30777344 1.44988281 1.61554688 1.89976562 0.90234375 2.36328125 C-5.13304092 6.33120872 -11.04824125 10.42035219 -16.875 14.6875 C-17.4925415 15.13843018 -18.11008301 15.58936035 -18.74633789 16.05395508 C-22.61689963 18.90658051 -26.33388572 21.88884798 -30 25 C-31.32 24.34 -32.64 23.68 -34 23 C-33.01 22.01 -32.02 21.02 -31 20 C-32.98 19.67 -34.96 19.34 -37 19 C-33.66062749 16.32850199 -30.07252779 14.26004367 -26.3125 12.25 C-25.66909668 11.90509521 -25.02569336 11.56019043 -24.36279297 11.20483398 C-17.85468778 7.79489863 -11.11617911 5.04553943 -4.2890625 2.34765625 C-1.2007919 1.32953022 -1.2007919 1.32953022 0 0 Z " fill="#E8E9F0" transform="translate(305,538)"/>
<path d="M0 0 C12.87 0 25.74 0 39 0 C39 0.33 39 0.66 39 1 C26.79 1.33 14.58 1.66 2 2 C1.67 32.69 1.34 63.38 1 95 C5.95 94.67 10.9 94.34 16 94 C16.33 93.34 16.66 92.68 17 92 C17.66 92 18.32 92 19 92 C19 93.32 19 94.64 19 96 C12.73 96 6.46 96 0 96 C0 64.32 0 32.64 0 0 Z " fill="#8FC47D" transform="translate(518,589)"/>
<path d="M0 0 C0.66 0.33 1.32 0.66 2 1 C1.23816406 1.66644531 0.47632813 2.33289063 -0.30859375 3.01953125 C-7.28042937 9.21105583 -13.31478874 15.57764085 -19 23 C-19.33 22.01 -19.66 21.02 -20 20 C-20.66 19.67 -21.32 19.34 -22 19 C-21.34 18.34 -20.68 17.68 -20 17 C-19.67 16.34 -19.34 15.68 -19 15 C-19.33 14.67 -19.66 14.34 -20 14 C-20.144375 13.360625 -20.28875 12.72125 -20.4375 12.0625 C-20.87208918 9.79715153 -20.87208918 9.79715153 -23 8 C-18.99619 5.80743738 -15.58641079 4.29911375 -11 4 C-8.625 4.9375 -8.625 4.9375 -7 6 C-6.67 5.34 -6.34 4.68 -6 4 C-5.34 4 -4.68 4 -4 4 C-4 3.34 -4 2.68 -4 2 C-2.125 0.9375 -2.125 0.9375 0 0 Z " fill="#151A29" transform="translate(200,601)"/>
<path d="M0 0 C0.33 1.98 0.66 3.96 1 6 C1.99 6 2.98 6 4 6 C4.33 8.97 4.66 11.94 5 15 C2.36 15 -0.28 15 -3 15 C-3 14.01 -3 13.02 -3 12 C-4.175625 11.7834375 -4.175625 11.7834375 -5.375 11.5625 C-8 11 -8 11 -10 10 C-9.51470588 3.56985294 -9.51470588 3.56985294 -7.25 1.0625 C-4.64597372 -0.16717908 -2.84687774 -0.23723981 0 0 Z " fill="#8ECE72" transform="translate(832,616)"/>
<path d="M0 0 C-0.88042969 0.06058594 -1.76085937 0.12117187 -2.66796875 0.18359375 C-4.41013672 0.30927734 -4.41013672 0.30927734 -6.1875 0.4375 C-7.91033203 0.55931641 -7.91033203 0.55931641 -9.66796875 0.68359375 C-12.51598171 0.95403812 -15.21210482 1.37521747 -18 2 C-17.67 2.99 -17.34 3.98 -17 5 C-17.33 5.66 -17.66 6.32 -18 7 C-18.11194982 8.3311857 -18.16642325 9.66748758 -18.18945312 11.00317383 C-18.20617065 11.82775589 -18.22288818 12.65233795 -18.2401123 13.50190735 C-18.25368774 14.39459824 -18.26726318 15.28728912 -18.28125 16.20703125 C-18.29965942 17.12457687 -18.31806885 18.0421225 -18.33703613 18.98747253 C-18.39588675 21.92908207 -18.44863041 24.87075089 -18.5 27.8125 C-18.56778328 31.67329627 -18.641533 35.53391351 -18.71875 39.39453125 C-18.73232544 40.28114944 -18.74590088 41.16776764 -18.7598877 42.08125305 C-18.77660522 42.9152916 -18.79332275 43.74933014 -18.81054688 44.60864258 C-18.82933899 45.70212761 -18.82933899 45.70212761 -18.84851074 46.81770325 C-19 49 -19 49 -20 54 C-25.94 54 -31.88 54 -38 54 C-38 53.67 -38 53.34 -38 53 C-32.39 53 -26.78 53 -21 53 C-21.02094727 51.5365918 -21.04189453 50.07318359 -21.06347656 48.56542969 C-21.13584923 43.13860856 -21.1817903 37.71183013 -21.21972656 32.28466797 C-21.23984814 29.93531116 -21.26714851 27.58600446 -21.30175781 25.23681641 C-21.3502504 21.86087685 -21.37296357 18.48559914 -21.390625 15.109375 C-21.41127014 14.05820496 -21.43191528 13.00703491 -21.45318604 11.92401123 C-21.45542859 4.64452889 -21.45542859 4.64452889 -19.15136719 1.38378906 C-13.08153487 -2.52041084 -6.41951464 -3.53213469 0 0 Z " fill="#0C1D17" transform="translate(838,633)"/>
<path d="M0 0 C9.68122385 -0.86097841 9.68122385 -0.86097841 13.5625 2.375 C18.0142935 7.16923915 17 7.17825061 17 15 C8.42 15 -0.16 15 -9 15 C-9 14.34 -9 13.68 -9 13 C-0.75 13 7.5 13 16 13 C15.34 10.69 14.68 8.38 14 6 C13.01 5.67 12.02 5.34 11 5 C10.67 5.66 10.34 6.32 10 7 C10 6.34 10 5.68 10 5 C9.34 5 8.68 5 8 5 C7.67 5.99 7.34 6.98 7 8 C4.525 7.01 4.525 7.01 2 6 C2 4.68 2 3.36 2 2 C1.34 1.34 0.68 0.68 0 0 Z " fill="#182B20" transform="translate(750,628)"/>
<path d="M0 0 C-1.20920907 5.89307312 -2.91375813 8.4384226 -7.625 12.4375 C-8.140625 12.88287109 -8.65625 13.32824219 -9.1875 13.78710938 C-10.44685163 14.87155105 -11.72187677 15.93774708 -13 17 C-13.33 15.68 -13.66 14.36 -14 13 C-13.360625 12.71125 -12.72125 12.4225 -12.0625 12.125 C-9.84793921 11.17176549 -9.84793921 11.17176549 -9 9 C-9.66 8.67 -10.32 8.34 -11 8 C-11.99 7.34 -12.98 6.68 -14 6 C-14.66 6 -15.32 6 -16 6 C-14.80938753 2.42816259 -13.29560698 1.49385942 -10.0546875 -0.28125 C-6.49815861 -1.52535897 -3.63629161 -0.76553507 0 0 Z " fill="#EEEFF4" transform="translate(274,558)"/>
<path d="M0 0 C3 2 3 2 3.6875 4.125 C3.8421875 5.053125 3.8421875 5.053125 4 6 C4.33 5.34 4.66 4.68 5 4 C7.375 4.25 7.375 4.25 10 5 C11.3125 7.0625 11.3125 7.0625 12 9 C11.175 9.45375 10.35 9.9075 9.5 10.375 C8.675 10.91125 7.85 11.4475 7 12 C7 12.66 7 13.32 7 14 C3 14 3 14 1.375 12.625 C0.92125 12.08875 0.4675 11.5525 0 11 C-0.66 10.34 -1.32 9.68 -2 9 C-1.67 8.67 -1.34 8.34 -1 8 C-1.66 7.34 -2.32 6.68 -3 6 C-3.69748583 4.68252676 -4.36959957 3.35085807 -5 2 C-2.6875 0.875 -2.6875 0.875 0 0 Z " fill="#F5F6FB" transform="translate(141,613)"/>
<path d="M0 0 C-1.09957031 0.53367187 -2.19914062 1.06734375 -3.33203125 1.6171875 C-11.92611506 5.90789949 -18.74582756 10.14374117 -25.62890625 16.890625 C-29.62093384 20.44201692 -33.60596044 22 -39 22 C-32.11344955 15.15077502 -10.19412616 -3.39804205 0 0 Z " fill="#C5C9D3" transform="translate(130,664)"/>
<path d="M0 0 C0.66 0 1.32 0 2 0 C3.98 4.29 5.96 8.58 8 13 C7.34 13 6.68 13 6 13 C6 16.95092517 6.18850893 17.63053818 7.984375 20.80859375 C11.01511495 27.32842631 10.4306419 34.01399218 10.25 41.0625 C10.22989291 42.41859325 10.21164961 43.77471547 10.1953125 45.13085938 C10.14847313 48.42132486 10.08288862 51.71027835 10 55 C9.34 54.67 8.68 54.34 8 54 C8.02618408 53.41734375 8.05236816 52.8346875 8.0793457 52.234375 C8.59505239 38.94872629 7.62022686 28.46703839 3 16 C1.86572118 11.45654798 1.86572118 11.45654798 2.625 8.875 C2.74875 8.25625 2.8725 7.6375 3 7 C2.02149805 5.97895449 1.02019573 4.9793879 0 4 C0 2.68 0 1.36 0 0 Z " fill="#11241C" transform="translate(289,631)"/>
<path d="M0 0 C5.32132956 0.89358285 9.45793622 3.0555399 14.1875 5.5625 C15.03159424 6.00706543 15.87568848 6.45163086 16.74536133 6.90966797 C23.10060897 10.33723101 28.67039514 14.09511944 34 19 C33.34 19.99 32.68 20.98 32 22 C29.01762237 20.67877464 27.20258764 19.31594877 25.0625 16.875 C18.19270108 9.78311706 8.8599991 5.16941134 0 1 C0 0.67 0 0.34 0 0 Z " fill="#CACDD5" transform="translate(335,663)"/>
<path d="M0 0 C5.61 0 11.22 0 17 0 C17 1.98 17 3.96 17 6 C16.01 5.67 15.02 5.34 14 5 C14 4.01 14 3.02 14 2 C9.71 1.67 5.42 1.34 1 1 C1 21.79 1 42.58 1 64 C0.67 64 0.34 64 0 64 C0 42.88 0 21.76 0 0 Z " fill="#8FCA79" transform="translate(798,614)"/>
<path d="M0 0 C0.66 0.33 1.32 0.66 2 1 C2 1.66 2 2.32 2 3 C2.66 3 3.32 3 4 3 C2.27933894 8.44876003 0.15294651 13.71169451 -2 19 C-2.66 19 -3.32 19 -4 19 C-4 18.34 -4 17.68 -4 17 C-4.99 17 -5.98 17 -7 17 C-5.34608232 10.77274933 -3.44240996 5.46037442 0 0 Z " fill="#202633" transform="translate(166,635)"/>
<path d="M0 0 C3.64935066 3.49068324 4.20993377 5.6275853 4.375 10.6875 C4.36030541 16.7931012 3.06044643 19.53350893 -1 24 C-1.99 23.67 -2.98 23.34 -4 23 C-4 22.01 -4 21.02 -4 20 C-2.68 20.33 -1.36 20.66 0 21 C0 20.01 0 19.02 0 18 C-0.99 17.67 -1.98 17.34 -3 17 C-3 16.34 -3 15.68 -3 15 C-1.68 14.34 -0.36 13.68 1 13 C1 11.02 1 9.04 1 7 C0.01 7.66 -0.98 8.32 -2 9 C-2 7.35 -2 5.7 -2 4 C-1.34 4 -0.68 4 0 4 C0 2.68 0 1.36 0 0 Z " fill="#88C472" transform="translate(301,583)"/>
<path d="M0 0 C0.99 0.33 1.98 0.66 3 1 C1.51446945 6.69453376 1.51446945 6.69453376 -1 8.1875 C-1.66 8.455625 -2.32 8.72375 -3 9 C-3.99 10.485 -3.99 10.485 -5 12 C0.61 12 6.22 12 12 12 C12 12.33 12 12.66 12 13 C5.73 13 -0.54 13 -7 13 C-5.85279188 4.96954315 -5.85279188 4.96954315 -2 1 C-1.34 0.67 -0.68 0.34 0 0 Z " fill="#0E1E19" transform="translate(628,629)"/>
<path d="M0 0 C3.3 1.98 6.6 3.96 10 6 C9.67 6.99 9.34 7.98 9 9 C6.4375 10.1875 6.4375 10.1875 4 11 C4 11.66 4 12.32 4 13 C3.01 13 2.02 13 1 13 C1 12.34 1 11.68 1 11 C0.01 11.33 -0.98 11.66 -2 12 C-2.66 10.02 -3.32 8.04 -4 6 C-2.68 6.33 -1.36 6.66 0 7 C0.33 6.34 0.66 5.68 1 5 C1.66 5.33 2.32 5.66 3 6 C3 5.01 3 4.02 3 3 C2.01 2.67 1.02 2.34 0 2 C0 1.34 0 0.68 0 0 Z " fill="#8AD06A" transform="translate(217,572)"/>
<path d="M0 0 C3 3 3 3 4 6 C3.34 6 2.68 6 2 6 C1.67 24.48 1.34 42.96 1 62 C0.67 62 0.34 62 0 62 C0 41.54 0 21.08 0 0 Z " fill="#323641" transform="translate(870,623)"/>
<path d="M0 0 C0.33 0 0.66 0 1 0 C1 20.79 1 41.58 1 63 C-0.32 61.35 -1.64 59.7 -3 58 C-2.01 57.505 -2.01 57.505 -1 57 C-0.67 38.19 -0.34 19.38 0 0 Z " fill="#2E313D" transform="translate(908,589)"/>
<path d="M0 0 C2 1.125 2 1.125 4 3 C4.25 6.1875 4.25 6.1875 4 9 C3.01 9 2.02 9 1 9 C-1.17032476 10.43990623 -1.17032476 10.43990623 -3 12 C-3.66 11.67 -4.32 11.34 -5 11 C-5 8.69 -5 6.38 -5 4 C-4.34 4 -3.68 4 -3 4 C-2.67 3.01 -2.34 2.02 -2 1 C-1.34 0.67 -0.68 0.34 0 0 Z " fill="#F4F4F9" transform="translate(377,695)"/>
<path d="M0 0 C0 1.65 0 3.3 0 5 C-0.66 5 -1.32 5 -2 5 C-2 4.34 -2 3.68 -2 3 C-3.32 3.33 -4.64 3.66 -6 4 C-6 4.66 -6 5.32 -6 6 C-7.11375 6.2784375 -7.11375 6.2784375 -8.25 6.5625 C-11.63337375 8.33108174 -12.40488504 10.03197442 -14.09765625 13.3359375 C-15.13462289 15.24826559 -16.46912998 16.46912998 -18 18 C-19.04622875 19.97620986 -20.05439935 21.9737129 -21 24 C-22 22 -22 22 -21.46875 20.1171875 C-17.82065168 11.6736051 -10.35984746 0 0 0 Z " fill="#85BB73" transform="translate(624,614)"/>
<path d="M0 0 C0.66 0.33 1.32 0.66 2 1 C2.6328125 3.94140625 2.6328125 3.94140625 3.125 7.5625 C3.29257813 8.76003906 3.46015625 9.95757813 3.6328125 11.19140625 C3.75398437 12.11824219 3.87515625 13.04507813 4 14 C-0.28359673 12.1144852 -2.15103592 9.64034299 -5 6 C-2.25 1.125 -2.25 1.125 0 0 Z " fill="#EFF3F7" transform="translate(187,712)"/>
<path d="M0 0 C0.99 0.33 1.98 0.66 3 1 C1.77023437 1.81404297 1.77023437 1.81404297 0.515625 2.64453125 C-1.10085938 3.71767578 -1.10085938 3.71767578 -2.75 4.8125 C-3.81734375 5.52019531 -4.8846875 6.22789062 -5.984375 6.95703125 C-8.92452272 8.8782282 -8.92452272 8.8782282 -11.1875 10.8125 C-11.785625 11.204375 -12.38375 11.59625 -13 12 C-16.25 11.1875 -16.25 11.1875 -19 10 C-17.72750945 7.4550189 -16.82452538 7.33670039 -14.21875 6.30859375 C-13.45949219 6.00373047 -12.70023437 5.69886719 -11.91796875 5.38476562 C-11.12003906 5.07216797 -10.32210938 4.75957031 -9.5 4.4375 C-7.92623485 3.81333305 -6.35327284 3.18713599 -4.78125 2.55859375 C-3.7303418 2.14565063 -3.7303418 2.14565063 -2.65820312 1.72436523 C-0.99726045 1.11889955 -0.99726045 1.11889955 0 0 Z " fill="#D6DAE3" transform="translate(305,538)"/>
<path d="M0 0 C0.98484375 0.02707031 1.9696875 0.05414062 2.984375 0.08203125 C3.73203125 0.11683594 4.4796875 0.15164063 5.25 0.1875 C4.59 3.4875 3.93 6.7875 3.25 10.1875 C2.59 10.1875 1.93 10.1875 1.25 10.1875 C1.25 8.2075 1.25 6.2275 1.25 4.1875 C0.693125 4.373125 0.13625 4.55875 -0.4375 4.75 C-2.75 5.1875 -2.75 5.1875 -5.375 4.625 C-6.550625 4.4084375 -6.550625 4.4084375 -7.75 4.1875 C-8.41 4.8475 -9.07 5.5075 -9.75 6.1875 C-9.75 3.1875 -9.75 3.1875 -8.109375 1.51171875 C-5.19250681 -0.12539767 -3.32144618 -0.11862308 0 0 Z " fill="#12141D" transform="translate(712.75,597.8125)"/>
<path d="M0 0 C1.30118568 5.70964172 1.18405009 11.29464685 1.1875 17.125 C1.19974609 18.22199219 1.21199219 19.31898438 1.22460938 20.44921875 C1.22654297 21.49980469 1.22847656 22.55039062 1.23046875 23.6328125 C1.23457764 24.59074707 1.23868652 25.54868164 1.24291992 26.53564453 C1 29 1 29 -1 32 C-1.93423645 28.98968256 -2.04449911 28.13349732 -1 25 C-0.77439324 22.60745424 -0.59151405 20.21071877 -0.4375 17.8125 C-0.35371094 16.54019531 -0.26992188 15.26789062 -0.18359375 13.95703125 C-0.12300781 12.98121094 -0.06242187 12.00539063 0 11 C-0.66 11 -1.32 11 -2 11 C-3.60725635 7.78548731 -3.05748185 4.56387464 -3 1 C-1 0 -1 0 0 0 Z " fill="#111D19" transform="translate(269,685)"/>
<path d="M0 0 C0.33 0.99 0.66 1.98 1 3 C1.66 3 2.32 3 3 3 C3 2.34 3 1.68 3 1 C3.66 1.33 4.32 1.66 5 2 C5 2.99 5 3.98 5 5 C-2.01017266 10.07195955 -8.43341895 11.27037225 -17 10 C-19.55645323 8.92481299 -20.93086161 7.89178367 -23 6 C-22.34 5.67 -21.68 5.34 -21 5 C-20.154375 5.45375 -19.30875 5.9075 -18.4375 6.375 C-14.26047194 8.34959508 -10.56121095 8.70605529 -6 9 C-6 8.34 -6 7.68 -6 7 C-4.35 7 -2.7 7 -1 7 C-0.67 4.69 -0.34 2.38 0 0 Z " fill="#14261C" transform="translate(769,661)"/>
<path d="M0 0 C0.66 0 1.32 0 2 0 C1.34 2.97 0.68 5.94 0 9 C8.25 9 16.5 9 25 9 C21.32843968 10.83578016 20.43388073 11.24370847 16.6640625 11.125 C15.84679687 11.10953125 15.02953125 11.0940625 14.1875 11.078125 C12.48697189 11.02627963 10.78645096 10.97419849 9.0859375 10.921875 C4.28007644 10.83119838 0.52248734 11.11440267 -4 13 C-4.1875 9.625 -4.1875 9.625 -4 6 C-3.01 5.34 -2.02 4.68 -1 4 C-0.27617533 1.94074861 -0.27617533 1.94074861 0 0 Z " fill="#90CA79" transform="translate(741,634)"/>
<path d="M0 0 C0.99 0.33 1.98 0.66 3 1 C3 1.66 3 2.32 3 3 C8.94 3.99 8.94 3.99 15 5 C15.33 6.32 15.66 7.64 16 9 C18.99615946 10.3045656 18.99615946 10.3045656 22 11 C20.27050781 12.12451172 20.27050781 12.12451172 18 13 C15.89355469 12.30908203 15.89355469 12.30908203 13.671875 11.0078125 C12.47304687 10.32138672 12.47304687 10.32138672 11.25 9.62109375 C10.425 9.12738281 9.6 8.63367188 8.75 8.125 C7.90953125 7.63902344 7.0690625 7.15304687 6.203125 6.65234375 C4.12665576 5.44893544 2.06000165 4.23131629 0 3 C0 2.01 0 1.02 0 0 Z " fill="#141E25" transform="translate(188,553)"/>
<path d="M0 0 C-1.485 1.98 -1.485 1.98 -3 4 C1.455 4.99 1.455 4.99 6 6 C5.67 6.66 5.34 7.32 5 8 C2.22729571 7.38251126 -0.54295598 6.75637544 -3.3125 6.125 C-4.09818359 5.95097656 -4.88386719 5.77695312 -5.69335938 5.59765625 C-6.45068359 5.42363281 -7.20800781 5.24960937 -7.98828125 5.0703125 C-8.68477783 4.91320801 -9.38127441 4.75610352 -10.09887695 4.59423828 C-12 4 -12 4 -15 2 C-9.75614911 0.2520497 -5.52677733 -0.19392201 0 0 Z " fill="#1E2330" transform="translate(165,746)"/>
<path d="M0 0 C3.90432869 1.95216435 6.03839944 3.87386607 9 7 C8.38511719 6.89300781 7.77023438 6.78601563 7.13671875 6.67578125 C5.92435547 6.49595703 5.92435547 6.49595703 4.6875 6.3125 C3.48673828 6.12107422 3.48673828 6.12107422 2.26171875 5.92578125 C-0.09649679 5.77257193 -0.09649679 5.77257193 -1.79296875 7.48046875 C-2.39044922 8.23263672 -2.39044922 8.23263672 -3 9 C-3 8.01 -3 7.02 -3 6 C-3.99 6.99 -4.98 7.98 -6 9 C-6.66 8.67 -7.32 8.34 -8 8 C-5.36 5.36 -2.72 2.72 0 0 Z M-4 9 C-3.67 10.32 -3.34 11.64 -3 13 C-3.66 12.67 -4.32 12.34 -5 12 C-4.67 11.01 -4.34 10.02 -4 9 Z " fill="#8FC87A" transform="translate(243,591)"/>
<path d="M0 0 C3.875 4.75 3.875 4.75 5 7 C2.10765685 7.82638376 0.11257569 8 -3 8 C-2.67 10.31 -2.34 12.62 -2 15 C-2.99 15 -3.98 15 -5 15 C-6.75 13.1875 -6.75 13.1875 -8 11 C-7.67 10.01 -7.34 9.02 -7 8 C-6.38125 7.731875 -5.7625 7.46375 -5.125 7.1875 C-2.07704451 5.48423076 -1.35923152 3.1262325 0 0 Z " fill="#EDEFF4" transform="translate(96,714)"/>
<path d="M0 0 C1.64936913 0.78427352 3.29441127 1.57765259 4.9375 2.375 C5.85402344 2.81585937 6.77054688 3.25671875 7.71484375 3.7109375 C10 5 10 5 11 7 C10.21625 6.938125 9.4325 6.87625 8.625 6.8125 C7.325625 6.9053125 7.325625 6.9053125 6 7 C5.01 8.485 5.01 8.485 4 10 C4.66 10 5.32 10 6 10 C6 10.66 6 11.32 6 12 C6.66 12 7.32 12 8 12 C7.67 12.66 7.34 13.32 7 14 C4.03 11.69 1.06 9.38 -2 7 C-1.67 6.34 -1.34 5.68 -1 5 C-0.34 5.33 0.32 5.66 1 6 C1 6.66 1 7.32 1 8 C1.66 8 2.32 8 3 8 C2.505 7.05125 2.01 6.1025 1.5 5.125 C0 2 0 2 0 0 Z " fill="#89BF71" transform="translate(180,551)"/>
<path d="M0 0 C2.4375 0.8125 2.4375 0.8125 5 2 C5.33 2.99 5.66 3.98 6 5 C4.89526367 7.17675781 4.89526367 7.17675781 3 9 C0.5480957 9.36230469 0.5480957 9.36230469 -2.32421875 9.171875 C-3.35224609 9.11386719 -4.38027344 9.05585937 -5.43945312 8.99609375 C-6.51130859 8.91488281 -7.58316406 8.83367188 -8.6875 8.75 C-9.77095703 8.68425781 -10.85441406 8.61851562 -11.97070312 8.55078125 C-14.64887652 8.38560756 -17.3243402 8.20131547 -20 8 C-20 7.67 -20 7.34 -20 7 C-12.74 7 -5.48 7 2 7 C1.34 4.69 0.68 2.38 0 0 Z M8 1 C8.33 1.66 8.66 2.32 9 3 C8.01 3.33 7.02 3.66 6 4 C6 3.34 6 2.68 6 2 C6.66 1.67 7.32 1.34 8 1 Z " fill="#0B1919" transform="translate(591,679)"/>
<path d="M0 0 C0 0.99 0 1.98 0 3 C-0.66 2.67 -1.32 2.34 -2 2 C-1.34 1.34 -0.68 0.68 0 0 Z M-2 3 C-1.855625 3.598125 -1.71125 4.19625 -1.5625 4.8125 C-1.1127561 6.56150404 -0.57107659 8.28677023 0 10 C-1.093125 9.9175 -2.18625 9.835 -3.3125 9.75 C-7.03442858 9.58896039 -7.03442858 9.58896039 -8.9375 12 C-9.288125 12.66 -9.63875 13.32 -10 14 C-11.32 13.34 -12.64 12.68 -14 12 C-12.38050958 10.49405319 -10.75424026 8.99539332 -9.125 7.5 C-8.22007812 6.6646875 -7.31515625 5.829375 -6.3828125 4.96875 C-4 3 -4 3 -2 3 Z " fill="#1B202E" transform="translate(271,565)"/>
<path d="M0 0 C3 3.75 3 3.75 3 6 C10.26 6 17.52 6 25 6 C25 6.33 25 6.66 25 7 C21.04204914 7.19625099 17.08363065 7.38051982 13.125 7.5625 C11.43310547 7.64661133 11.43310547 7.64661133 9.70703125 7.73242188 C8.63066406 7.78076172 7.55429687 7.82910156 6.4453125 7.87890625 C4.95281982 7.94960327 4.95281982 7.94960327 3.43017578 8.02172852 C1 8 1 8 -1 7 C-1 7.66 -1 8.32 -1 9 C-1.99 9 -2.98 9 -4 9 C-4 8.34 -4 7.68 -4 7 C-3.34 7 -2.68 7 -2 7 C-1.855625 6.21625 -1.71125 5.4325 -1.5625 4.625 C-1 2 -1 2 0 0 Z " fill="#253C2F" transform="translate(568,679)"/>
<path d="M0 0 C1 3 1 3 -0.0625 5.1875 C-2 7 -2 7 -4.9375 7.125 C-5.948125 7.08375 -6.95875 7.0425 -8 7 C-10.30230766 7.89831016 -10.30230766 7.89831016 -12 9 C-12 9.66 -12 10.32 -12 11 C-13.65 11.33 -15.3 11.66 -17 12 C-17.33 12.99 -17.66 13.98 -18 15 C-18.33 14.01 -18.66 13.02 -19 12 C-18.32453125 11.52949219 -17.6490625 11.05898438 -16.953125 10.57421875 C-16.06109375 9.95160156 -15.1690625 9.32898438 -14.25 8.6875 C-13.36828125 8.07261719 -12.4865625 7.45773437 -11.578125 6.82421875 C-9.97922018 5.69287246 -8.39708603 4.53689217 -6.84375 3.34375 C-4.68379211 1.7695434 -2.50493838 0.90456108 0 0 Z " fill="#10201D" transform="translate(591,633)"/>
<path d="M0 0 C-9 6 -9 6 -18 12 C-18.66 11.34 -19.32 10.68 -20 10 C-19 7 -19 7 -17.35766602 5.90917969 C-16.66342529 5.58336914 -15.96918457 5.25755859 -15.25390625 4.921875 C-14.12178711 4.38820313 -14.12178711 4.38820313 -12.96679688 3.84375 C-12.17337891 3.4828125 -11.37996094 3.121875 -10.5625 2.75 C-9.77294922 2.37359375 -8.98339844 1.9971875 -8.16992188 1.609375 C-2.26151316 -1.13075658 -2.26151316 -1.13075658 0 0 Z " fill="#81B170" transform="translate(362,589)"/>
<path d="M0 0 C0.99 0.33 1.98 0.66 3 1 C0.2181149 4.60614736 -2.78288725 7.78288725 -6 11 C-8.81666882 13.96892119 -9.93856409 15.18597419 -10.25 19.3125 C-10.1675 20.199375 -10.085 21.08625 -10 22 C-10.99 21.67 -11.98 21.34 -13 21 C-13.33 20.01 -13.66 19.02 -14 18 C-13.15136719 16.33007812 -13.15136719 16.33007812 -11.796875 14.53125 C-11.31089844 13.87769531 -10.82492187 13.22414063 -10.32421875 12.55078125 C-9.80472656 11.87402344 -9.28523438 11.19726562 -8.75 10.5 C-8.24597656 9.82324219 -7.74195313 9.14648438 -7.22265625 8.44921875 C-4.95948143 5.43759242 -2.71465213 2.62090588 0 0 Z " fill="#11221E" transform="translate(321,622)"/>
<path d="M0 0 C0.99 0.33 1.98 0.66 3 1 C1.68 3.64 0.36 6.28 -1 9 C9.395 8.505 9.395 8.505 20 8 C20 8.66 20 9.32 20 10 C12.74 10 5.48 10 -2 10 C-2.66 8.35 -3.32 6.7 -4 5 C-3.34 5 -2.68 5 -2 5 C-1.7834375 4.0409375 -1.7834375 4.0409375 -1.5625 3.0625 C-1 1 -1 1 0 0 Z " fill="#3F444F" transform="translate(1014,676)"/>
<path d="M0 0 C0.33 0 0.66 0 1 0 C1 9.57 1 19.14 1 29 C1.66 29 2.32 29 3 29 C3.33 31.31 3.66 33.62 4 36 C2.68 35.67 1.36 35.34 0 35 C0 23.45 0 11.9 0 0 Z " fill="#0E1816" transform="translate(538,651)"/>
<path d="M0 0 C10.89 0 21.78 0 33 0 C33 0.33 33 0.66 33 1 C23.1 1.33 13.2 1.66 3 2 C3.66 3.98 4.32 5.96 5 8 C4.01 7.67 3.02 7.34 2 7 C1.34 4.69 0.68 2.38 0 0 Z " fill="#0C2315" transform="translate(620,656)"/>
<path d="M0 0 C4.84286815 1.49359485 9.31350896 3.45033567 13.875 5.625 C14.56335938 5.94984375 15.25171875 6.2746875 15.9609375 6.609375 C17.64205219 7.40323472 19.32122921 8.20119558 21 9 C20.01 10.32 19.02 11.64 18 13 C17.3709375 12.55269531 16.741875 12.10539063 16.09375 11.64453125 C11.91547674 8.69331113 7.74098328 5.79310089 3.375 3.125 C2.26125 2.42375 1.1475 1.7225 0 1 C0 0.67 0 0.34 0 0 Z " fill="#C7CAD4" transform="translate(95,587)"/>
<path d="M0 0 C0.66 1.32 1.32 2.64 2 4 C0.44384991 5.29930979 -1.1202168 6.58914138 -2.6875 7.875 C-3.55761719 8.59429688 -4.42773438 9.31359375 -5.32421875 10.0546875 C-7.8477646 11.88932376 -10.06338486 12.99467229 -13 14 C-13 13.01 -13 12.02 -13 11 C-12.34 11 -11.68 11 -11 11 C-10.67 10.01 -10.34 9.02 -10 8 C-9.21625 7.938125 -8.4325 7.87625 -7.625 7.8125 C-6.75875 7.544375 -5.8925 7.27625 -5 7 C-3.83046584 4.57616923 -3.83046584 4.57616923 -3 2 C-2.01 1.34 -1.02 0.68 0 0 Z " fill="#252B37" transform="translate(359,721)"/>
<path d="M0 0 C6.99818687 0.90198853 10.42174559 2.60000761 15 8 C14.67 8.66 14.34 9.32 14 10 C10.01636642 8.67212214 7.89369166 6.99014805 5 4 C4.01 3.67 3.02 3.34 2 3 C2 2.34 2 1.68 2 1 C1.34 0.67 0.68 0.34 0 0 Z " fill="#307817" transform="translate(232,514)"/>
<path d="M0 0 C0.66 0.66 1.32 1.32 2 2 C1.67 2.66 1.34 3.32 1 4 C1.97582031 3.97679687 2.95164062 3.95359375 3.95703125 3.9296875 C5.22933594 3.91164063 6.50164063 3.89359375 7.8125 3.875 C9.07707031 3.85179687 10.34164062 3.82859375 11.64453125 3.8046875 C15 4 15 4 18 6 C13.82141755 8.08929122 8.54876054 7.44618415 4 7 C1.24563226 5.95049881 -0.59378409 4.7499752 -3 3 C-2.01 2.67 -1.02 2.34 0 2 C0 1.34 0 0.68 0 0 Z " fill="#0F241A" transform="translate(628,664)"/>
<path d="M0 0 C0.66 0.66 1.32 1.32 2 2 C1.34 2 0.68 2 0 2 C0 2.763125 0 3.52625 0 4.3125 C0 6.20833333 0 8.10416667 0 10 C-2.31 10 -4.62 10 -7 10 C-5.76075855 5.04303419 -4.21422242 2.88341534 0 0 Z " fill="#131D26" transform="translate(748,631)"/>
<path d="M0 0 C1 2 1 2 1.4375 4.375 C1.97605433 6.88825355 2.75874406 8.76573931 4 11 C3.34 11 2.68 11 2 11 C1.67 11.99 1.34 12.98 1 14 C-4 8.63414634 -4 8.63414634 -4 5.875 C-2.85596677 3.7299377 -1.54215107 1.87740131 0 0 Z " fill="#8EC879" transform="translate(234,600)"/>
<path d="M0 0 C0.33 0.66 0.66 1.32 1 2 C1.66 2.33 2.32 2.66 3 3 C-0.33114085 7.02512852 -4.06100148 8.66129814 -9 10 C-9.99 10 -10.98 10 -12 10 C-10.56458334 8.70601853 -9.12658648 7.41489889 -7.6875 6.125 C-6.88699219 5.40570312 -6.08648437 4.68640625 -5.26171875 3.9453125 C-3 2 -3 2 0 0 Z " fill="#D9DBE1" transform="translate(103,676)"/>
<path d="M0 0 C1.42602378 2.85204757 0.34717147 4.74436856 -0.453125 7.69140625 C-1.33582479 11.41766034 -1.66496315 15.19116006 -2 19 C-2.66 18.34 -3.32 17.68 -4 17 C-3.67 16.01 -3.34 15.02 -3 14 C-3.66 14 -4.32 14 -5 14 C-6.125 9.25 -6.125 9.25 -5 7 C-4.34 7 -3.68 7 -3 7 C-2.690625 6.030625 -2.38125 5.06125 -2.0625 4.0625 C-1 1 -1 1 0 0 Z " fill="#E7EBF2" transform="translate(191,676)"/>
<path d="M0 0 C4.13371903 3.67441691 7.3543783 7.62501483 9 13 C8.6015625 15.24609375 8.6015625 15.24609375 8 17 C7.5875 16.05125 7.175 15.1025 6.75 14.125 C5.3630539 10.91253333 5.3630539 10.91253333 2.9375 10.09375 C1 9 1 9 0.390625 6.8359375 C0.34421875 6.02382813 0.2978125 5.21171875 0.25 4.375 C0.19328125 3.55773437 0.1365625 2.74046875 0.078125 1.8984375 C0.05234375 1.27195312 0.0265625 0.64546875 0 0 Z " fill="#84BB70" transform="translate(776,620)"/>
<path d="M0 0 C0.99 0.33 1.98 0.66 3 1 C3.6875 3.0625 3.6875 3.0625 4 5 C2.02 5.99 2.02 5.99 0 7 C-0.33 6.67 -0.66 6.34 -1 6 C-2.92139613 6.32743697 -2.92139613 6.32743697 -5.0625 6.9375 C-5.79597656 7.13214844 -6.52945312 7.32679688 -7.28515625 7.52734375 C-7.85105469 7.68332031 -8.41695313 7.83929687 -9 8 C-2.92207792 1.75324675 -2.92207792 1.75324675 0 0 Z " fill="#142025" transform="translate(347,598)"/>
<path d="M0 0 C0.99 0.33 1.98 0.66 3 1 C3.33 2.32 3.66 3.64 4 5 C-3.26 5 -10.52 5 -18 5 C-18.33 4.01 -18.66 3.02 -19 2 C-18.01 2.33 -17.02 2.66 -16 3 C-13.8365832 3.14497123 -11.66807069 3.22070175 -9.5 3.25 C-7.78296875 3.28867187 -7.78296875 3.28867187 -6.03125 3.328125 C-2.99422481 3.27256908 -2.99422481 3.27256908 -1.09375 1.484375 C-0.7328125 0.99453125 -0.371875 0.5046875 0 0 Z " fill="#8BC07A" transform="translate(589,680)"/>
<path d="M0 0 C0.125 7.625 0.125 7.625 -1 11 C-1.66 11 -2.32 11 -3 11 C-3 10.34 -3 9.68 -3 9 C-3.99 9 -4.98 9 -6 9 C-3.83333333 0 -3.83333333 0 0 0 Z " fill="#161A25" transform="translate(165,643)"/>
<path d="M0 0 C0.66 0.33 1.32 0.66 2 1 C-1.3 3.97 -4.6 6.94 -8 10 C-10.475 9.01 -10.475 9.01 -13 8 C-12.34 6.68 -11.68 5.36 -11 4 C-9.68 4.66 -8.36 5.32 -7 6 C-6.67 5.34 -6.34 4.68 -6 4 C-5.34 4 -4.68 4 -4 4 C-4 3.34 -4 2.68 -4 2 C-2.125 0.9375 -2.125 0.9375 0 0 Z " fill="#1D212F" transform="translate(200,601)"/>
<path d="M0 0 C0.598125 0.165 1.19625 0.33 1.8125 0.5 C4.11344336 1.1114124 4.11344336 1.1114124 7 1 C7.66 1.66 8.32 2.32 9 3 C8.67 3.33 8.34 3.66 8 4 C8.66 4.33 9.32 4.66 10 5 C10 5.66 10 6.32 10 7 C10.99 6.67 11.98 6.34 13 6 C12.67 6.99 12.34 7.98 12 9 C7.71 7.02 3.42 5.04 -1 3 C-0.67 2.01 -0.34 1.02 0 0 Z " fill="#1B202C" transform="translate(98,585)"/>
<path d="M0 0 C1.828125 0.22265625 1.828125 0.22265625 4 1 C5.484375 2.99609375 5.484375 2.99609375 6.75 5.4375 C7.39195313 6.64212891 7.39195313 6.64212891 8.046875 7.87109375 C9 10 9 10 9 12 C7.35 12 5.7 12 4 12 C4.20625 11.38125 4.4125 10.7625 4.625 10.125 C4.74875 9.42375 4.8725 8.7225 5 8 C3.04783565 6.04783565 1.46800047 5.15173355 -1 4 C-0.67 2.68 -0.34 1.36 0 0 Z " fill="#EAEBF1" transform="translate(1069,673)"/>
<path d="M0 0 C11.22 0 22.44 0 34 0 C34 0.33 34 0.66 34 1 C18.655 1.495 18.655 1.495 3 2 C3 2.66 3 3.32 3 4 C2.01 3.67 1.02 3.34 0 3 C0 2.01 0 1.02 0 0 Z " fill="#0D2112" transform="translate(741,656)"/>
<path d="M0 0 C-0.33 0.99 -0.66 1.98 -1 3 C-2.11375 2.2884375 -2.11375 2.2884375 -3.25 1.5625 C-8.05928471 -1.17004813 -12.80602468 -1.26914091 -18.25 -1.5625 C-18.99507812 -1.60568359 -19.74015625 -1.64886719 -20.5078125 -1.69335938 C-22.338349 -1.79896725 -24.16915176 -1.89994201 -26 -2 C-26 -2.33 -26 -2.66 -26 -3 C-16.47934788 -4.29194653 -8.72380188 -4.26909454 0 0 Z " fill="#253D26" transform="translate(774,615)"/>
<path d="M0 0 C0.99 0.66 1.98 1.32 3 2 C1.2126038 3.33905267 -0.58004953 4.67109066 -2.375 6 C-3.37273437 6.7425 -4.37046875 7.485 -5.3984375 8.25 C-8 10 -8 10 -10 10 C-10.33 8.68 -10.66 7.36 -11 6 C-10.34 5.67 -9.68 5.34 -9 5 C-8.01 5.33 -7.02 5.66 -6 6 C-6.33 5.01 -6.66 4.02 -7 3 C-3.6875 1.375 -3.6875 1.375 0 0 Z " fill="#94CB82" transform="translate(227,579)"/>
<path d="M0 0 C0.33 0 0.66 0 1 0 C1.12375 0.969375 1.2475 1.93875 1.375 2.9375 C1.684375 4.4534375 1.684375 4.4534375 2 6 C2.66 6.33 3.32 6.66 4 7 C4.33 5.35 4.66 3.7 5 2 C6.32 2 7.64 2 9 2 C7.61811547 5.21043882 6.07578097 7.04936365 3.375 9.25 C2.74335938 9.77078125 2.11171875 10.2915625 1.4609375 10.828125 C0.97882813 11.21484375 0.49671875 11.6015625 0 12 C-1.30660357 7.70272603 -0.6596762 4.39784135 0 0 Z " fill="#7AAA6B" transform="translate(269,714)"/>
<path d="M0 0 C-3.63 3.3 -7.26 6.6 -11 10 C-11.33 8.68 -11.66 7.36 -12 6 C-11.360625 5.71125 -10.72125 5.4225 -10.0625 5.125 C-7.84793921 4.17176549 -7.84793921 4.17176549 -7 2 C-7.66 1.67 -8.32 1.34 -9 1 C-5.19495213 -0.79682816 -4.29399165 -1.07349791 0 0 Z " fill="#E3E6EE" transform="translate(272,565)"/>
<path d="M0 0 C0.33 0 0.66 0 1 0 C1.33 1.65 1.66 3.3 2 5 C2.99 5 3.98 5 5 5 C4.690625 5.7425 4.38125 6.485 4.0625 7.25 C3.1905075 9.50692176 2.52332993 11.6450153 2 14 C0.68 14 -0.64 14 -2 14 C-1.34 9.38 -0.68 4.76 0 0 Z " fill="#81BE6D" transform="translate(569,616)"/>
<path d="M0 0 C3.44754086 1.53224038 6.09793334 3.60579501 9 6 C10.32901064 7.00573778 11.66073801 8.00795408 13 9 C11.02 9.66 9.04 10.32 7 11 C7 10.34 7 9.68 7 9 C6.02149805 7.97895449 5.02019573 6.9793879 4 6 C3.67 5.34 3.34 4.68 3 4 C0.98330173 2.86649466 0.98330173 2.86649466 -1 2 C-0.67 1.34 -0.34 0.68 0 0 Z " fill="#192922" transform="translate(728,675)"/>
<path d="M0 0 C0.66 0.33 1.32 0.66 2 1 C1.835 1.598125 1.67 2.19625 1.5 2.8125 C0.8885876 5.11344336 0.8885876 5.11344336 1 8 C0.01 8.495 0.01 8.495 -1 9 C-2.32 7.68 -3.64 6.36 -5 5 C-4.67 4.01 -4.34 3.02 -4 2 C-3.34 2.33 -2.68 2.66 -2 3 C-1.34 2.01 -0.68 1.02 0 0 Z M-5 9 C-4.01 10.485 -4.01 10.485 -3 12 C-3.99 12.495 -3.99 12.495 -5 13 C-5 11.68 -5 10.36 -5 9 Z " fill="#F7F7FC" transform="translate(154,622)"/>
<path d="M0 0 C4.56454251 0.54339792 7.9728176 1.79463821 12 4 C11.01 4.66 10.02 5.32 9 6 C8.01 5.67 7.02 5.34 6 5 C5.67 5.66 5.34 6.32 5 7 C1.18461538 4.53846154 1.18461538 4.53846154 0.25 1.8125 C0.1675 1.214375 0.085 0.61625 0 0 Z " fill="#E1E3EC" transform="translate(113,597)"/>
<path d="M0 0 C1.32 0.33 2.64 0.66 4 1 C4 2.32 4 3.64 4 5 C4.66 5 5.32 5 6 5 C6.12375 5.639375 6.2475 6.27875 6.375 6.9375 C6.684375 7.9584375 6.684375 7.9584375 7 9 C7.66 9.33 8.32 9.66 9 10 C9 11.98 9 13.96 9 16 C6.40962402 12.79509037 4.62056844 9.44649547 2.8125 5.75 C2.01779297 4.13351562 2.01779297 4.13351562 1.20703125 2.484375 C0.80871094 1.66453125 0.41039062 0.8446875 0 0 Z " fill="#14291D" transform="translate(581,662)"/>
<path d="M0 0 C2.40072955 2.88087546 4.47291037 5.56404834 6 9 C5.01 9.33 4.02 9.66 3 10 C0.69 7.69 -1.62 5.38 -4 3 C-2.68 2.01 -1.36 1.02 0 0 Z " fill="#DADDE5" transform="translate(135,613)"/>
<path d="M0 0 C3.97169202 2.17318997 6.77085357 3.77085357 10 7 C5.545 7.495 5.545 7.495 1 8 C1 7.01 1 6.02 1 5 C0.68911632 3.32900023 0.35919668 1.66128463 0 0 Z " fill="#142224" transform="translate(159,544)"/>
<path d="M0 0 C0 4.94025052 -4.01238054 7.98568812 -7.3125 11.375 C-7.869375 11.91125 -8.42625 12.4475 -9 13 C-8.34 14.32 -7.68 15.64 -7 17 C-8.65 15.35 -10.3 13.7 -12 12 C-8.04 8.04 -4.08 4.08 0 0 Z " fill="#1F292B" transform="translate(256,578)"/>
<path d="M0 0 C0.66 0 1.32 0 2 0 C2.33 0.66 2.66 1.32 3 2 C3.99 1.67 4.98 1.34 6 1 C7.65 2.65 9.3 4.3 11 6 C9 7 9 7 6.6171875 6.22265625 C5.71226562 5.83980469 4.80734375 5.45695313 3.875 5.0625 C2.96492187 4.68222656 2.05484375 4.30195312 1.1171875 3.91015625 C0.41851562 3.60980469 -0.28015625 3.30945313 -1 3 C-0.67 2.01 -0.34 1.02 0 0 Z " fill="#202631" transform="translate(132,739)"/>
<path d="M0 0 C2.64 1.98 5.28 3.96 8 6 C7 10 7 10 5 12 C4.9175 11.21625 4.835 10.4325 4.75 9.625 C4.29150599 6.8553382 4.29150599 6.8553382 2 5.875 C1.34 5.58625 0.68 5.2975 0 5 C-0.33 4.01 -0.66 3.02 -1 2 C-0.67 1.34 -0.34 0.68 0 0 Z " fill="#E3E4ED" transform="translate(160,625)"/>
<path d="M0 0 C1.5778125 0.4021875 1.5778125 0.4021875 3.1875 0.8125 C3.1875 2.1325 3.1875 3.4525 3.1875 4.8125 C1.33125 4.5340625 1.33125 4.5340625 -0.5625 4.25 C-3.57529577 3.86538777 -5.91260827 3.7250406 -8.8125 4.8125 C-4.75096154 -0.23365385 -4.75096154 -0.23365385 0 0 Z " fill="#8DD163" transform="translate(286.8125,585.1875)"/>
<path d="M0 0 C3.3 1.98 6.6 3.96 10 6 C9.67 6.99 9.34 7.98 9 9 C7.35 9 5.7 9 4 9 C3.67 7.02 3.34 5.04 3 3 C2.01 2.67 1.02 2.34 0 2 C0 1.34 0 0.68 0 0 Z " fill="#86C16C" transform="translate(217,572)"/>
<path d="M0 0 C1.98 0 3.96 0 6 0 C7.25433458 3.76300374 7.10695422 7.27210909 7.0625 11.1875 C7.05798828 11.93708984 7.05347656 12.68667969 7.04882812 13.45898438 C7.03706354 15.30602383 7.01912865 17.15302213 7 19 C6.67 19 6.34 19 6 19 C5.94392578 17.51886719 5.94392578 17.51886719 5.88671875 16.0078125 C5.82097656 14.72648438 5.75523437 13.44515625 5.6875 12.125 C5.62949219 10.84882812 5.57148438 9.57265625 5.51171875 8.2578125 C5.34285156 7.18273437 5.17398438 6.10765625 5 5 C4.01 4.34 3.02 3.68 2 3 C2.33 2.34 2.66 1.68 3 1 C2.01 0.67 1.02 0.34 0 0 Z " fill="#CDDEC9" transform="translate(223,514)"/>
<path d="M0 0 C2.71372659 2.00579792 3.03939963 3.17275223 3.8125 6.5625 C3.874375 7.696875 3.93625 8.83125 4 10 C3.34 10.66 2.68 11.32 2 12 C1.4654744 10.75579353 0.94791389 9.50429064 0.4375 8.25 C0.14746094 7.55390625 -0.14257812 6.8578125 -0.44140625 6.140625 C-1.07831803 3.69987216 -0.80248831 2.3596345 0 0 Z " fill="#88C166" transform="translate(660,626)"/>
<path d="M0 0 C0.33 0 0.66 0 1 0 C1 4.29 1 8.58 1 13 C4.3 13 7.6 13 11 13 C11 13.33 11 13.66 11 14 C9.93458984 14.07347656 9.93458984 14.07347656 8.84765625 14.1484375 C7.92855469 14.22320313 7.00945313 14.29796875 6.0625 14.375 C5.14597656 14.44460938 4.22945312 14.51421875 3.28515625 14.5859375 C2.53105469 14.72257813 1.77695312 14.85921875 1 15 C0.67 15.66 0.34 16.32 0 17 C-1.0625 15.125 -1.0625 15.125 -2 13 C-1.67 12.34 -1.34 11.68 -1 11 C-0.7724985 9.12943209 -0.59037189 7.25314042 -0.4375 5.375 C-0.35371094 4.37210938 -0.26992188 3.36921875 -0.18359375 2.3359375 C-0.12300781 1.56507813 -0.06242188 0.79421875 0 0 Z " fill="#0B1C14" transform="translate(670,615)"/>
<path d="M0 0 C4.54075781 4.14010271 7.71842138 8.82390176 11 14 C10.67 14.66 10.34 15.32 10 16 C0 5.20547945 0 5.20547945 0 0 Z " fill="#12281D" transform="translate(233,612)"/>
<path d="M0 0 C0.99 0 1.98 0 3 0 C2.67 1.65 2.34 3.3 2 5 C2.99 5.33 3.98 5.66 5 6 C5.33 5.34 5.66 4.68 6 4 C6 4.99 6 5.98 6 7 C4.54077307 6.88590407 3.08259402 6.75834456 1.625 6.625 C0.40683594 6.52058594 0.40683594 6.52058594 -0.8359375 6.4140625 C-3 6 -3 6 -5 4 C-3.35 3.67 -1.7 3.34 0 3 C0 2.01 0 1.02 0 0 Z " fill="#E5EAE7" transform="translate(224,548)"/>
<path d="M0 0 C-3.28463659 2.18975773 -6.20696275 2.99806563 -10 4 C-10.66 2.68 -11.32 1.36 -12 0 C-7.44729118 -2.48329572 -4.775353 -1.68541871 0 0 Z " fill="#1D212D" transform="translate(304,539)"/>
<path d="M0 0 C0.33 0.66 0.66 1.32 1 2 C0.67 2.66 0.34 3.32 0 4 C0.66 4 1.32 4 2 4 C2 4.99 2 5.98 2 7 C-1.465 8.485 -1.465 8.485 -5 10 C-3.84414715 6.08788267 -2.64465038 3.1254959 0 0 Z " fill="#E2E6ED" transform="translate(1028,658)"/>
<path d="M0 0 C-1.3125 2.5 -1.3125 2.5 -3 5 C-3.99 5 -4.98 5 -6 5 C-5.34 4.01 -4.68 3.02 -4 2 C-5.98 2 -7.96 2 -10 2 C-7.85732894 -2.28534211 -3.95706306 -0.79141261 0 0 Z " fill="#8AC476" transform="translate(704,584)"/>
<path d="M0 0 C0 1.32 0 2.64 0 4 C-2.25 5.1875 -2.25 5.1875 -5 6 C-7.3125 4.625 -7.3125 4.625 -9 3 C-3.375 0 -3.375 0 0 0 Z " fill="#DEE0E8" transform="translate(295,544)"/>
<path d="M0 0 C0.66 0 1.32 0 2 0 C1.7734375 1.88671875 1.7734375 1.88671875 1 4 C-0.9609375 5.08203125 -0.9609375 5.08203125 -3.375 5.8125 C-4.16648437 6.06644531 -4.95796875 6.32039062 -5.7734375 6.58203125 C-8 7 -8 7 -11 6 C-10.05125 5.54625 -9.1025 5.0925 -8.125 4.625 C-4.99686321 3.19761746 -4.99686321 3.19761746 -3 1 C-2.01 1.33 -1.02 1.66 0 2 C0 1.34 0 0.68 0 0 Z " fill="#1C202C" transform="translate(316,744)"/>
<path d="M0 0 C0.66 0 1.32 0 2 0 C2.33 0.99 2.66 1.98 3 3 C2.01 3.33 1.02 3.66 0 4 C0.33 6.31 0.66 8.62 1 11 C-1.12038635 8.38485683 -3.13091744 5.80362384 -5 3 C-4.360625 2.87625 -3.72125 2.7525 -3.0625 2.625 C-2.0415625 2.315625 -2.0415625 2.315625 -1 2 C-0.67 1.34 -0.34 0.68 0 0 Z " fill="#0B1B16" transform="translate(782,617)"/>
<path d="M0 0 C0.33 0 0.66 0 1 0 C1.3697479 5.54621849 1.3697479 5.54621849 -0.375 7.6875 C-0.91125 8.120625 -1.4475 8.55375 -2 9 C-2.99 10.485 -2.99 10.485 -4 12 C-4 11.01 -4 10.02 -4 9 C-4.66 8.67 -5.32 8.34 -6 8 C-5.38125 7.236875 -4.7625 6.47375 -4.125 5.6875 C-1.94402948 3.00374191 -1.94402948 3.00374191 0 0 Z " fill="#0D1F1D" transform="translate(249,542)"/>
<path d="M0 0 C1.32 0.33 2.64 0.66 4 1 C3.67 2.65 3.34 4.3 3 6 C0.69 5.67 -1.62 5.34 -4 5 C-2.68 3.35 -1.36 1.7 0 0 Z " fill="#E5E8EF" transform="translate(366,718)"/>
<path d="M0 0 C0.66 0.33 1.32 0.66 2 1 C1.38241446 2.9606842 0.75568655 4.91849063 0.125 6.875 C-0.22304688 7.96554687 -0.57109375 9.05609375 -0.9296875 10.1796875 C-2 13 -2 13 -4 15 C-3.63495936 9.33557626 -2.9445679 4.99296295 0 0 Z " fill="#8AC174" transform="translate(295,683)"/>
<path d="M0 0 C2.8290723 2.8290723 3.37611108 3.38144425 4 7 C1.36 7.33 -1.28 7.66 -4 8 C-2.68 5.36 -1.36 2.72 0 0 Z " fill="#242935" transform="translate(1045,663)"/>
<path d="M0 0 C1.32 0 2.64 0 4 0 C4 0.66 4 1.32 4 2 C5.32 2.33 6.64 2.66 8 3 C7.01 4.485 7.01 4.485 6 6 C3.0625 5.1875 3.0625 5.1875 0 4 C-0.33 3.01 -0.66 2.02 -1 1 C-0.67 0.67 -0.34 0.34 0 0 Z " fill="#161B27" transform="translate(348,665)"/>
<path d="M0 0 C3.67758005 3.28355362 5.81389118 6.62778237 8 11 C7.67 11.66 7.34 12.32 7 13 C3.61939099 9.88628118 1.29079964 7.45912603 0 3 C0 2.01 0 1.02 0 0 Z " fill="#252A35" transform="translate(887,651)"/>
<path d="M0 0 C2.96865509 2.54456151 4.3619751 5.48994665 6 9 C4.35 9.66 2.7 10.32 1 11 C0.21500664 7.17315739 0 3.90099296 0 0 Z " fill="#E4E8F0" transform="translate(889,621)"/>
<path d="M0 0 C4.17799643 2.08899822 4.92391901 3.05544612 7 7 C5.02 7.99 5.02 7.99 3 9 C2.01 6.03 1.02 3.06 0 0 Z " fill="#132323" transform="translate(562,607)"/>
<path d="M0 0 C0.99 0.33 1.98 0.66 3 1 C3 1.66 3 2.32 3 3 C3.556875 3.12375 4.11375 3.2475 4.6875 3.375 C7.2618003 4.07075684 9.59880886 4.83185296 12 6 C12.33 6.99 12.66 7.98 13 9 C8.50202887 7.31326082 4.27113698 5.18326108 0 3 C0 2.01 0 1.02 0 0 Z " fill="#132B21" transform="translate(188,553)"/>
<path d="M0 0 C3.93281241 1.57312496 5.69057041 2.4739697 7.875 6.1875 C8.24625 7.115625 8.6175 8.04375 9 9 C5.55862568 7.4705003 2.7777867 5.54630448 0 3 C0 2.01 0 1.02 0 0 Z " fill="#D9DDE3" transform="translate(950,673)"/>
<path d="M0 0 C2.64 0.33 5.28 0.66 8 1 C7.34 2.65 6.68 4.3 6 6 C5.01 6 4.02 6 3 6 C2.01 4.02 1.02 2.04 0 0 Z " fill="#242934" transform="translate(1041,627)"/>
<path d="M0 0 C1.15518918 0.90484792 2.29885406 1.8244206 3.4375 2.75 C4.07558594 3.26046875 4.71367187 3.7709375 5.37109375 4.296875 C7.18810554 6.19667629 7.60423197 7.43586908 8 10 C7.67 9.34 7.34 8.68 7 8 C6.01 8.33 5.02 8.66 4 9 C1.3144406 6.3144406 0.93950026 3.62378672 0 0 Z " fill="#85C271" transform="translate(267,612)"/>
<path d="M0 0 C2 1.375 2 1.375 4 3 C4 3.66 4 4.32 4 5 C3.01 5 2.02 5 1 5 C1 5.66 1 6.32 1 7 C0.01 7 -0.98 7 -2 7 C-2.6875 5.1875 -2.6875 5.1875 -3 3 C-1.5625 1.25 -1.5625 1.25 0 0 Z " fill="#1D2728" transform="translate(229,607)"/>
<path d="M0 0 C0.98484375 0.02707031 1.9696875 0.05414062 2.984375 0.08203125 C3.73203125 0.11683594 4.4796875 0.15164063 5.25 0.1875 C5.25 0.5175 5.25 0.8475 5.25 1.1875 C2.61 1.1875 -0.03 1.1875 -2.75 1.1875 C-2.75 1.8475 -2.75 2.5075 -2.75 3.1875 C-3.53375 3.31125 -4.3175 3.435 -5.125 3.5625 C-7.89057822 3.97867993 -7.89057822 3.97867993 -9.75 6.1875 C-9.75 3.1875 -9.75 3.1875 -8.109375 1.51171875 C-5.19250681 -0.12539767 -3.32144618 -0.11862308 0 0 Z " fill="#142A1D" transform="translate(712.75,597.8125)"/>
<path d="M0 0 C-1.1196986 1.00593243 -2.2459412 2.0045849 -3.375 3 C-4.00148437 3.556875 -4.62796875 4.11375 -5.2734375 4.6875 C-7 6 -7 6 -9 6 C-8.67 5.401875 -8.34 4.80375 -8 4.1875 C-6.79212012 1.94613529 -6.79212012 1.94613529 -7 -1 C-3.51418144 -2.2020064 -3.32007656 -2.21338437 0 0 Z " fill="#1F2432" transform="translate(213,593)"/>
<path d="M0 0 C5.06998019 0.65419099 9.41990777 2.8546409 14 5 C12.328125 6.17578125 12.328125 6.17578125 10 7 C7.421875 5.91796875 7.421875 5.91796875 4.75 4.1875 C3.85796875 3.62417969 2.9659375 3.06085937 2.046875 2.48046875 C1.37140625 1.99191406 0.6959375 1.50335937 0 1 C0 0.67 0 0.34 0 0 Z " fill="#85B271" transform="translate(151,538)"/>
<path d="M0 0 C1.58624235 0.42683239 3.1689098 0.86696158 4.75 1.3125 C6.07257812 1.67794922 6.07257812 1.67794922 7.421875 2.05078125 C10.05772505 3.02125331 11.85407326 4.21005644 14 6 C13.67 6.66 13.34 7.32 13 8 C12.48050781 7.73445312 11.96101562 7.46890625 11.42578125 7.1953125 C7.66979306 5.29301903 3.94774121 3.48040295 0 2 C0 1.34 0 0.68 0 0 Z " fill="#88BC74" transform="translate(566,590)"/>
<path d="M0 0 C0.33 0.66 0.66 1.32 1 2 C0.34 1.67 -0.32 1.34 -1 1 C-0.67 0.67 -0.34 0.34 0 0 Z M-1 2 C-1 4 -1 4 -3.5 6.625 C-4.325 7.40875 -5.15 8.1925 -6 9 C-7.32 8.34 -8.64 7.68 -10 7 C-3.40909091 2 -3.40909091 2 -1 2 Z " fill="#E5E6ED" transform="translate(352,731)"/>
<path d="M0 0 C1.32 0 2.64 0 4 0 C2.44499019 3.81684226 -0.03595495 6.19195732 -3 9 C-3 7.35 -3 5.7 -3 4 C-2.34 3.67 -1.68 3.34 -1 3 C-0.67 2.01 -0.34 1.02 0 0 Z " fill="#E1E3EA" transform="translate(374,722)"/>
<path d="M0 0 C2.83374881 3.20336822 3.5205537 5.78087253 4 10 C1.69 8.35 -0.62 6.7 -3 5 C-2.67 4.01 -2.34 3.02 -2 2 C-1.34 2 -0.68 2 0 2 C0 1.34 0 0.68 0 0 Z " fill="#1F2431" transform="translate(108,721)"/>
<path d="M0 0 C0.66 0.33 1.32 0.66 2 1 C1.195625 1.61875 0.39125 2.2375 -0.4375 2.875 C-3.03874519 4.74164041 -3.03874519 4.74164041 -4 7 C-5.65 7 -7.3 7 -9 7 C-6.25604436 4.05278838 -3.61662784 1.80831392 0 0 Z " fill="#1D222E" transform="translate(120,668)"/>
<path d="M0 0 C1.67542976 0.28604898 3.34385343 0.61781233 5 1 C3.35830472 3.02054804 1.69088222 5.02043058 0 7 C-0.33 7 -0.66 7 -1 7 C-1.04254356 5.00045254 -1.04080783 2.99958364 -1 1 C-0.67 0.67 -0.34 0.34 0 0 Z " fill="#162B1F" transform="translate(817,614)"/>
<path d="M0 0 C3.875 4.75 3.875 4.75 5 7 C1.98968256 7.93423645 1.13349732 8.04449911 -2 7 C-1.34 4.69 -0.68 2.38 0 0 Z " fill="#E1E3E8" transform="translate(96,714)"/>
<path d="M0 0 C3.27286682 2.7819368 4.96427697 6.27954067 7 10 C6.01 10 5.02 10 4 10 C4 9.34 4 8.68 4 8 C3.01 7.67 2.02 7.34 1 7 C0.67 4.69 0.34 2.38 0 0 Z " fill="#10221A" transform="translate(602,666)"/>
<path d="M0 0 C1.32 0.33 2.64 0.66 4 1 C4 1.66 4 2.32 4 3 C4.99 3.33 5.98 3.66 7 4 C6.34 5.32 5.68 6.64 5 8 C2.74754119 5.31158141 1.11786042 3.35358125 0 0 Z " fill="#1D222E" transform="translate(1065,661)"/>
<path d="M0 0 C0.33 0 0.66 0 1 0 C1 4.95 1 9.9 1 15 C0.01 15 -0.98 15 -2 15 C-1.34 10.05 -0.68 5.1 0 0 Z " fill="#0E2316" transform="translate(590,613)"/>
<path d="M0 0 C0.66 0 1.32 0 2 0 C5 5.75 5 5.75 5 8 C4.34 8 3.68 8 3 8 C3 7.34 3 6.68 3 6 C1.35 5.67 -0.3 5.34 -2 5 C-1.34 4.01 -0.68 3.02 0 2 C0 1.34 0 0.68 0 0 Z " fill="#91D075" transform="translate(178,551)"/>
<path d="M0 0 C1.65 1.32 3.3 2.64 5 4 C3.1875 5.5625 3.1875 5.5625 1 7 C0.01 6.67 -0.98 6.34 -2 6 C-2 4.68 -2 3.36 -2 2 C-1.34 2 -0.68 2 0 2 C0 1.34 0 0.68 0 0 Z " fill="#1C222F" transform="translate(216,512)"/>
<path d="M0 0 C1.65 0 3.3 0 5 0 C2.75 2.5 2.75 2.5 0 5 C-1.32 5 -2.64 5 -4 5 C-3.67 4.34 -3.34 3.68 -3 3 C-2.34 3 -1.68 3 -1 3 C-0.67 2.01 -0.34 1.02 0 0 Z " fill="#21222E" transform="translate(349,729)"/>
<path d="M0 0 C1.89213369 2.38573379 3.02391783 4.07175348 4 7 C2.68 7.33 1.36 7.66 0 8 C-1.09658936 4.71023192 -0.79953138 3.28696233 0 0 Z " fill="#1D212C" transform="translate(84,718)"/>
<path d="M0 0 C2.97 0.495 2.97 0.495 6 1 C3.525 4.465 3.525 4.465 1 8 C0.67 7.01 0.34 6.02 0 5 C-0.66 4.67 -1.32 4.34 -2 4 C-1.34 3.34 -0.68 2.68 0 2 C0 1.34 0 0.68 0 0 Z " fill="#1D212D" transform="translate(180,616)"/>
<path d="M0 0 C3.65589852 0.89366408 5.55866062 1.44476659 7.9375 4.4375 C9 7 9 7 8 10 C6.66370254 8.52351062 5.33103329 7.0437367 4 5.5625 C3.2575 4.73878906 2.515 3.91507813 1.75 3.06640625 C0 1 0 1 0 0 Z " fill="#132B1C" transform="translate(268,612)"/>
<path d="M0 0 C1.32 0 2.64 0 4 0 C4 0.99 4 1.98 4 3 C1.69 4.32 -0.62 5.64 -3 7 C-3 6.01 -3 5.02 -3 4 C-2.34 4 -1.68 4 -1 4 C-0.67 2.68 -0.34 1.36 0 0 Z " fill="#111E1D" transform="translate(309,612)"/>
<path d="M0 0 C3.3 0.33 6.6 0.66 10 1 C9.67 1.99 9.34 2.98 9 4 C8.01 4 7.02 4 6 4 C5.67 4.66 5.34 5.32 5 6 C3.35 4.02 1.7 2.04 0 0 Z " fill="#D8DCE2" transform="translate(125,609)"/>
<path d="M0 0 C1.65 0 3.3 0 5 0 C3.68 2.31 2.36 4.62 1 7 C-1 4 -1 4 -0.625 1.8125 C-0.41875 1.214375 -0.2125 0.61625 0 0 Z " fill="#112619" transform="translate(684,588)"/>
<path d="M0 0 C0.66 0 1.32 0 2 0 C2 3.3 2 6.6 2 10 C1.01 10 0.02 10 -1 10 C-0.67 6.7 -0.34 3.4 0 0 Z " fill="#87D468" transform="translate(715,585)"/>
<path d="M0 0 C-2.64 1.98 -5.28 3.96 -8 6 C-7 2 -7 2 -6 0 C-3 -1 -3 -1 0 0 Z " fill="#DBDFE7" transform="translate(371,732)"/>
<path d="M0 0 C0.99 0.33 1.98 0.66 3 1 C2.21718695 2.33855056 1.42348123 3.67073644 0.625 5 C0.18414062 5.7425 -0.25671875 6.485 -0.7109375 7.25 C-1.34902344 8.11625 -1.34902344 8.11625 -2 9 C-2.66 9 -3.32 9 -4 9 C-2.25 2.25 -2.25 2.25 0 0 Z " fill="#E5E7ED" transform="translate(98,683)"/>
<path d="M0 0 C0.66 0.33 1.32 0.66 2 1 C2 1.66 2 2.32 2 3 C0.02 3.66 -1.96 4.32 -4 5 C-3.6875 3.0625 -3.6875 3.0625 -3 1 C-2.01 0.67 -1.02 0.34 0 0 Z M-5 5 C-5 5.99 -5 6.98 -5 8 C-5.66 7.67 -6.32 7.34 -7 7 C-6.34 6.34 -5.68 5.68 -5 5 Z " fill="#171F2E" transform="translate(1049,670)"/>
<path d="M0 0 C0.99 0.66 1.98 1.32 3 2 C2.34 3.98 1.68 5.96 1 8 C-1.2477975 5.94766315 -2.0022242 4.99332739 -3 2 C-2.34 2 -1.68 2 -1 2 C-0.67 1.34 -0.34 0.68 0 0 Z " fill="#E4E8F0" transform="translate(948,665)"/>
<path d="M0 0 C2.79872437 2.52788007 4.45773019 4.20411134 5 8 C3.02 6.68 1.04 5.36 -1 4 C-0.67 2.68 -0.34 1.36 0 0 Z M1 7 C1.66 7 2.32 7 3 7 C2.67 8.32 2.34 9.64 2 11 C1.67 9.68 1.34 8.36 1 7 Z " fill="#DDE1E8" transform="translate(881,608)"/>
<path d="M0 0 C0.99 0.33 1.98 0.66 3 1 C3 1.66 3 2.32 3 3 C4.32 3.33 5.64 3.66 7 4 C4.03 4 1.06 4 -2 4 C-2 3.01 -2 2.02 -2 1 C-1.34 0.67 -0.68 0.34 0 0 Z " fill="#79B16F" transform="translate(286,607)"/>
<path d="M0 0 C2.24606427 1.77444972 2.95081002 2.58352485 3.29296875 5.48046875 C3.25816406 6.37378906 3.22335938 7.26710938 3.1875 8.1875 C3.16042969 9.08855469 3.13335937 9.98960937 3.10546875 10.91796875 C3.07066406 11.60503906 3.03585938 12.29210937 3 13 C2.67 13 2.34 13 2 13 C2 11.35 2 9.7 2 8 C1.34 8 0.68 8 0 8 C0 5.36 0 2.72 0 0 Z " fill="#CDD0D8" transform="translate(185,585)"/>
<path d="M0 0 C4.75 0.75 4.75 0.75 7 3 C5.02 3.33 3.04 3.66 1 4 C0.67 2.68 0.34 1.36 0 0 Z M-2 3 C-1.01 3.495 -1.01 3.495 0 4 C-0.99 4.495 -0.99 4.495 -2 5 C-2 4.34 -2 3.68 -2 3 Z " fill="#E6E8EF" transform="translate(124,739)"/>
<path d="M0 0 C0.33 2.64 0.66 5.28 1 8 C-0.9375 7.1875 -0.9375 7.1875 -3 6 C-3.33 5.01 -3.66 4.02 -4 3 C-1.125 0 -1.125 0 0 0 Z " fill="#D5D6DF" transform="translate(190,718)"/>
<path d="M0 0 C2.97 1.65 5.94 3.3 9 5 C9 5.33 9 5.66 9 6 C6.1875 6.25 6.1875 6.25 3 6 C1.125 4.125 1.125 4.125 0 2 C0 1.34 0 0.68 0 0 Z " fill="#1E2430" transform="translate(347,670)"/>
<path d="M0 0 C0.33 0.66 0.66 1.32 1 2 C2.65 2 4.3 2 6 2 C6 4.31 6 6.62 6 9 C0.42857143 3.85714286 0.42857143 3.85714286 0 0 Z " fill="#152B22" transform="translate(659,666)"/>
<path d="M0 0 C0.99 0.33 1.98 0.66 3 1 C3.75 3.25 3.75 3.25 4 6 C2.0625 8.3125 2.0625 8.3125 0 10 C-0.33 9.01 -0.66 8.02 -1 7 C-0.01 6.67 0.98 6.34 2 6 C1.34 4.02 0.68 2.04 0 0 Z " fill="#F7F8FD" transform="translate(1035,641)"/>
<path d="M0 0 C0.66 1.32 1.32 2.64 2 4 C1.01 4 0.02 4 -1 4 C-1.33 4.66 -1.66 5.32 -2 6 C-1.34 6 -0.68 6 0 6 C-0.33 6.99 -0.66 7.98 -1 9 C-2.5625 7.1875 -2.5625 7.1875 -4 5 C-3 2 -3 2 0 0 Z " fill="#8AC074" transform="translate(295,628)"/>
<path d="M0 0 C0.66 0 1.32 0 2 0 C1.67 1.65 1.34 3.3 1 5 C1.66 5.33 2.32 5.66 3 6 C1.35 6 -0.3 6 -2 6 C-2.33 5.34 -2.66 4.68 -3 4 C-1.625 2 -1.625 2 0 0 Z " fill="#87C36C" transform="translate(729,624)"/>
<path d="M0 0 C1.32 0 2.64 0 4 0 C4 0.66 4 1.32 4 2 C5.32 2.33 6.64 2.66 8 3 C7.34 3.66 6.68 4.32 6 5 C4.02 4.34 2.04 3.68 0 3 C0 2.01 0 1.02 0 0 Z " fill="#8BD17C" transform="translate(643,618)"/>
<path d="M0 0 C-3.68400584 1.23104155 -6.91474976 0.90767252 -10.75 0.5625 C-11.92046875 0.46066406 -13.0909375 0.35882812 -14.296875 0.25390625 C-15.63492188 0.12822266 -15.63492188 0.12822266 -17 0 C-17 -0.33 -17 -0.66 -17 -1 C-15.10590022 -1.22354607 -13.2095652 -1.42819951 -11.3125 -1.625 C-9.72888672 -1.79902344 -9.72888672 -1.79902344 -8.11328125 -1.9765625 C-4.86283654 -2.0010326 -2.89769204 -1.40852563 0 0 Z " fill="#0A1B15" transform="translate(645,612)"/>
<path d="M0 0 C2.64 0.33 5.28 0.66 8 1 C8 2.32 8 3.64 8 5 C4.20411134 4.45773019 2.52788007 2.79872437 0 0 Z " fill="#E3E6EC" transform="translate(119,604)"/>
<path d="M0 0 C0.33 0.99 0.66 1.98 1 3 C-0.40445835 5.2636564 -2.1967913 7.0208685 -4 9 C-5 6 -5 6 -4.25 3.375 C-3 1 -3 1 0 0 Z " fill="#2A2E3A" transform="translate(160,577)"/>
<path d="M0 0 C2.97 0.495 2.97 0.495 6 1 C6 1.66 6 2.32 6 3 C6.66 3.33 7.32 3.66 8 4 C5.125 4.625 5.125 4.625 2 5 C1.34 4.34 0.68 3.68 0 3 C0 2.01 0 1.02 0 0 Z " fill="#151E2D" transform="translate(160,538)"/>
<path d="M0 0 C4.40114397 0.50298788 6.71195019 2.08772731 10 5 C7.8125 5.3125 7.8125 5.3125 5 5 C2.1875 2.5 2.1875 2.5 0 0 Z " fill="#D1D6DF" transform="translate(349,670)"/>
<path d="M0 0 C0.66 0.33 1.32 0.66 2 1 C0.625 2.5 0.625 2.5 -1 4 C-1.66 4 -2.32 4 -3 4 C-3 4.99 -3 5.98 -3 7 C-3.99 7.33 -4.98 7.66 -6 8 C-6.33 7.01 -6.66 6.02 -7 5 C-4.69 3.35 -2.38 1.7 0 0 Z " fill="#88C071" transform="translate(654,664)"/>
<path d="M0 0 C3.33537489 1.11179163 4.63707344 2.47411298 7 5 C6.67 5.66 6.34 6.32 6 7 C3 6 3 6 1.3125 2.9375 C0.879375 1.968125 0.44625 0.99875 0 0 Z " fill="#8FC57C" transform="translate(238,617)"/>
<path d="M0 0 C0.53625 0.680625 1.0725 1.36125 1.625 2.0625 C1.295 2.7225 0.965 3.3825 0.625 4.0625 C-0.1175 3.60875 -0.86 3.155 -1.625 2.6875 C-3.84430578 1.37609204 -6.05467822 0.17969197 -8.375 -0.9375 C-2.95961538 -2.41442308 -2.95961538 -2.41442308 0 0 Z " fill="#1A2C25" transform="translate(651.375,613.9375)"/>
<path d="M0 0 C2.64 0 5.28 0 8 0 C8.33 0.66 8.66 1.32 9 2 C7.02 2.99 7.02 2.99 5 4 C3.35 2.68 1.7 1.36 0 0 Z " fill="#0F1714" transform="translate(285,611)"/>
<path d="M0 0 C0 1.65 0 3.3 0 5 C-1.98 4.34 -3.96 3.68 -6 3 C-4.60722783 0.21445565 -3.01148006 0 0 0 Z " fill="#1A1F2B" transform="translate(127,597)"/>
<path d="M0 0 C2.97 0.495 2.97 0.495 6 1 C5.67 1.99 5.34 2.98 5 4 C3.35 3.67 1.7 3.34 0 3 C0 2.01 0 1.02 0 0 Z " fill="#8DD260" transform="translate(538,594)"/>
<path d="M0 0 C0.33 0.66 0.66 1.32 1 2 C0.67 2.66 0.34 3.32 0 4 C0.66 4.33 1.32 4.66 2 5 C0.35 6.32 -1.3 7.64 -3 9 C-3.33 8.34 -3.66 7.68 -4 7 C-3.22265625 5.2734375 -3.22265625 5.2734375 -2.0625 3.375 C-1.381875 2.26125 -0.70125 1.1475 0 0 Z " fill="#1F2431" transform="translate(1038,676)"/>
<path d="M0 0 C4 4.75 4 4.75 4 7 C2.68 7.33 1.36 7.66 0 8 C-1.09658936 4.71023192 -0.79953138 3.28696233 0 0 Z " fill="#22242F" transform="translate(1052,675)"/>
<path d="M0 0 C1.875 0.125 1.875 0.125 4 1 C5.25 4.0625 5.25 4.0625 6 7 C3.95880212 5.38405168 1.95927063 3.7143618 0 2 C0 1.34 0 0.68 0 0 Z " fill="#88BE72" transform="translate(607,672)"/>
<path d="M0 0 C2.5654594 2.5654594 2.54046087 4.47686668 3 8 C-0.875 6.25 -0.875 6.25 -2 4 C-1.34 4 -0.68 4 0 4 C0 2.68 0 1.36 0 0 Z " fill="#242A33" transform="translate(364,672)"/>
<path d="M0 0 C1.32 1.65 2.64 3.3 4 5 C1.50935112 5.68707555 -0.37886292 6 -3 6 C-2 4 -1 2 0 0 Z " fill="#E6E9EF" transform="translate(900,639)"/>
<path d="M0 0 C1.65 0 3.3 0 5 0 C5.66 1.32 6.32 2.64 7 4 C6.21625 3.79375 5.4325 3.5875 4.625 3.375 C3.75875 3.25125 2.8925 3.1275 2 3 C1.34 3.66 0.68 4.32 0 5 C-0.33 4.34 -0.66 3.68 -1 3 C-0.67 2.01 -0.34 1.02 0 0 Z " fill="#82C169" transform="translate(281,634)"/>
<path d="M0 0 C0.66 0.99 1.32 1.98 2 3 C0.02 5.31 -1.96 7.62 -4 10 C-4 5.75354935 -2.18249194 3.61475228 0 0 Z " fill="#292F39" transform="translate(1074,620)"/>
<path d="M0 0 C0.66 0 1.32 0 2 0 C0.768606 3.69418201 -1.20791354 5.35109746 -4 8 C-4 4.06830895 -2.60580385 2.83572772 0 0 Z " fill="#DFE2EA" transform="translate(185,618)"/>
<path d="M0 0 C2.97 0.495 2.97 0.495 6 1 C6 2.98 6 4.96 6 7 C1.125 2.25 1.125 2.25 0 0 Z " fill="#DCDFE6" transform="translate(155,601)"/>
<path d="M0 0 C0 0.66 0 1.32 0 2 C-0.66 2 -1.32 2 -2 2 C-2.33 3.32 -2.66 4.64 -3 6 C-4.32 6 -5.64 6 -7 6 C-5.52522876 2.59668175 -4.14385429 0 0 0 Z " fill="#D9DFE6" transform="translate(238,575)"/>
<path d="M0 0 C0.33 0.99 0.66 1.98 1 3 C1.99 3.33 2.98 3.66 4 4 C2.75775988 6.48448024 1.55296823 8.67054766 0 11 C0 7.37 0 3.74 0 0 Z " fill="#DEE1EA" transform="translate(209,529)"/>
<path d="M0 0 C-0.66 1.32 -1.32 2.64 -2 4 C-3.98 3.34 -5.96 2.68 -8 2 C-5.44123378 -0.55876622 -3.37797483 -1.68898741 0 0 Z " fill="#DADCE3" transform="translate(323,747)"/>
<path d="M0 0 C1.32 0.33 2.64 0.66 4 1 C4.33 2.65 4.66 4.3 5 6 C3.35 5.67 1.7 5.34 0 5 C0 3.35 0 1.7 0 0 Z " fill="#171C28" transform="translate(1053,681)"/>
<path d="M0 0 C0.6875 1.75 0.6875 1.75 1 4 C-0.4375 6.25 -0.4375 6.25 -2 8 C-2.33 6.02 -2.66 4.04 -3 2 C-2.01 2 -1.02 2 0 2 C0 1.34 0 0.68 0 0 Z " fill="#84BA72" transform="translate(302,645)"/>
<path d="M0 0 C1.32 0.33 2.64 0.66 4 1 C2.515 3.475 2.515 3.475 1 6 C-0.65 5.67 -2.3 5.34 -4 5 C-2.68 4.67 -1.36 4.34 0 4 C0 2.68 0 1.36 0 0 Z " fill="#85C46E" transform="translate(642,624)"/>
<path d="M0 0 C0.99 0.33 1.98 0.66 3 1 C-1.75 4.875 -1.75 4.875 -4 6 C-4.33 4.68 -4.66 3.36 -5 2 C-4.360625 1.855625 -3.72125 1.71125 -3.0625 1.5625 C-1.02454854 1.18992819 -1.02454854 1.18992819 0 0 Z " fill="#1A2921" transform="translate(737,614)"/>
<path d="M0 0 C1.9375 0.6875 1.9375 0.6875 4 2 C4.75 4.625 4.75 4.625 5 7 C4.01 7.495 4.01 7.495 3 8 C1.02 4.535 1.02 4.535 -1 1 C-0.67 0.67 -0.34 0.34 0 0 Z " fill="#1D232D" transform="translate(183,579)"/>
<path d="M0 0 C1.65 0 3.3 0 5 0 C5 0.99 5 1.98 5 3 C3.68 3 2.36 3 1 3 C0.67 3.99 0.34 4.98 0 6 C-1.125 2.25 -1.125 2.25 0 0 Z " fill="#90D277" transform="translate(193,563)"/>
<path d="M0 0 C4 4.75 4 4.75 4 7 C3.01 7.33 2.02 7.66 1 8 C-0.4606285 5.35261084 -1 4.10551666 -1 1 C-0.67 0.67 -0.34 0.34 0 0 Z " fill="#242935" transform="translate(210,542)"/>
<path d="M0 0 C3.96 1.98 3.96 1.98 8 4 C5 5 5 5 1 5 C1 4.34 1 3.68 1 3 C0.34 2.67 -0.32 2.34 -1 2 C-0.67 1.34 -0.34 0.68 0 0 Z " fill="#152626" transform="translate(148,537)"/>
<path d="M0 0 C0.66 0 1.32 0 2 0 C2 0.66 2 1.32 2 2 C2.99 2.33 3.98 2.66 5 3 C2.03 3.66 -0.94 4.32 -4 5 C-4 4.34 -4 3.68 -4 3 C-3.01 2.34 -2.02 1.68 -1 1 C-0.67 0.67 -0.34 0.34 0 0 Z " fill="#E7E8EF" transform="translate(322,753)"/>
<path d="M0 0 C1.423125 0.495 1.423125 0.495 2.875 1 C5.77062452 2.10159191 5.77062452 2.10159191 8 2 C7.34 3.32 6.68 4.64 6 6 C4 4.66666667 2 3.33333333 0 2 C0 1.34 0 0.68 0 0 Z " fill="#F6F9FD" transform="translate(136,745)"/>
<path d="M0 0 C0 0.99 0 1.98 0 3 C0.66 3.66 1.32 4.32 2 5 C0.02 5 -1.96 5 -4 5 C-4 4.01 -4 3.02 -4 2 C-2.68 1.34 -1.36 0.68 0 0 Z " fill="#1B2227" transform="translate(656,681)"/>
<path d="M0 0 C0.33 1.32 0.66 2.64 1 4 C-0.9375 6.75 -0.9375 6.75 -3 9 C-3.66 8.67 -4.32 8.34 -5 8 C-3.35 5.36 -1.7 2.72 0 0 Z " fill="#D6D8E1" transform="translate(1018,675)"/>
<path d="M0 0 C2.97 0.495 2.97 0.495 6 1 C5.67 2.32 5.34 3.64 5 5 C3.35 3.35 1.7 1.7 0 0 Z " fill="#E2E6EE" transform="translate(356,675)"/>
<path d="M0 0 C1.54571278 2.31856917 2.79618552 4.50638429 4 7 C3.01 7 2.02 7 1 7 C0.34 7.66 -0.32 8.32 -1 9 C-0.67 6.03 -0.34 3.06 0 0 Z " fill="#19211D" transform="translate(723,665)"/>
<path d="M0 0 C2.97 0.495 2.97 0.495 6 1 C6.33 2.32 6.66 3.64 7 5 C3.34683329 3.75023244 2.21934164 3.32901247 0 0 Z " fill="#1B1F2B" transform="translate(966,665)"/>
<path d="M0 0 C0.66 0.66 1.32 1.32 2 2 C1.625 4.625 1.625 4.625 1 7 C0.01 7 -0.98 7 -2 7 C-1.34 4.69 -0.68 2.38 0 0 Z " fill="#1F2330" transform="translate(161,645)"/>
<path d="M0 0 C1.5625 1.1875 1.5625 1.1875 3 3 C2.6875 5.6875 2.6875 5.6875 2 8 C0.4375 6.25 0.4375 6.25 -1 4 C-0.6875 1.75 -0.6875 1.75 0 0 Z " fill="#1E222C" transform="translate(1030,644)"/>
<path d="M0 0 C2 1 2 1 3.125 4.0625 C3.41375 5.031875 3.7025 6.00125 4 7 C3.01 7.495 3.01 7.495 2 8 C2 7.01 2 6.02 2 5 C1.01 4.67 0.02 4.34 -1 4 C-0.67 2.68 -0.34 1.36 0 0 Z " fill="#87BD73" transform="translate(289,641)"/>
<path d="M0 0 C0.99 0 1.98 0 3 0 C3 0.66 3 1.32 3 2 C3.66 2 4.32 2 5 2 C5.33 3.32 5.66 4.64 6 6 C5.01 6 4.02 6 3 6 C2.01 4.02 1.02 2.04 0 0 Z " fill="#E3E4EC" transform="translate(878,635)"/>
<path d="M0 0 C2.4375 0.375 2.4375 0.375 5 1 C5.33 1.66 5.66 2.32 6 3 C5.67 3.66 5.34 4.32 5 5 C3.0625 4.1875 3.0625 4.1875 1 3 C0.67 2.01 0.34 1.02 0 0 Z " fill="#F8F7FC" transform="translate(160,631)"/>
<path d="M0 0 C0.66 0.33 1.32 0.66 2 1 C2 1.99 2 2.98 2 4 C2.66 4.33 3.32 4.66 4 5 C3.67 5.66 3.34 6.32 3 7 C2.34 7 1.68 7 1 7 C-0.0625 4.625 -0.0625 4.625 -1 2 C-0.67 1.34 -0.34 0.68 0 0 Z " fill="#191E2B" transform="translate(890,617)"/>
<path d="M0 0 C2.475 0.99 2.475 0.99 5 2 C4.67 2.66 4.34 3.32 4 4 C3.34 4 2.68 4 2 4 C1.67 4.66 1.34 5.32 1 6 C0 5 0 5 -0.0625 2.4375 C-0.041875 1.633125 -0.02125 0.82875 0 0 Z " fill="#171D29" transform="translate(98,590)"/>
</svg>
